<svg width="128" height="116" viewBox="0 0 128 116" fill="none" xmlns="http://www.w3.org/2000/svg">
<path d="M58.6856 15.377C61.1809 15.377 63.6699 15.377 66.1652 15.377C66.318 15.4152 66.4708 15.4788 66.6235 15.4916C70.271 15.7462 73.7848 16.6183 77.2095 17.8532C82.824 19.8775 87.7764 22.9584 92.1178 27.0451C96.16 30.8454 99.381 35.2377 101.73 40.2601C102.627 42.1826 103.41 44.1432 104.002 46.1802C104.155 46.7085 104.015 46.9377 103.487 46.9631C103.302 46.9695 103.118 46.9759 102.933 46.9759C95.8544 46.9759 88.7758 46.9695 81.6973 46.9886C80.9016 46.9886 80.3923 46.7276 79.9213 46.072C77.7315 43.0228 74.9497 40.6485 71.525 39.0889C66.8209 36.9437 61.9448 36.5554 56.9351 37.8158C52.32 38.9807 48.5579 41.5014 45.6106 45.168C42.3578 49.2166 40.8683 53.8698 40.9765 59.096C41.072 63.832 42.5424 68.0524 45.4324 71.7317C49.7228 77.1934 55.4391 79.9943 62.3777 80.0134C80.195 80.0707 98.0123 80.0325 115.83 80.0325C116.358 80.0325 116.893 79.9752 117.402 80.1789V101.784C116.95 101.796 116.504 101.822 116.052 101.822C98.3115 101.822 80.5642 101.803 62.8233 101.835C57.6798 101.847 52.7019 101.077 47.8513 99.3521C42.6188 97.487 37.8955 94.7434 33.7579 91.0577C26.9912 85.0231 22.4144 77.6326 20.2628 68.7908C19.9381 67.454 19.6644 66.1109 19.3652 64.7741C19.3652 60.5919 19.3652 56.4097 19.3652 52.2275C19.448 51.9474 19.5498 51.6737 19.6071 51.3936C19.9318 49.9231 20.1737 48.4272 20.5874 46.9822C22.6053 39.91 26.151 33.7099 31.3071 28.4265C37.3544 22.2264 44.6049 18.2033 53.0329 16.2682C54.8853 15.8417 56.7759 15.587 58.6665 15.3706L58.6856 15.377Z" fill="url(#paint0_linear_1083_7715)"/>
<path d="M117.407 74.3099C112.582 74.3163 107.756 74.329 102.931 74.329C94.9743 74.329 87.0237 74.329 79.0667 74.329C78.8311 74.329 78.5892 74.3417 78.3537 74.329C78.0736 74.3099 77.6853 74.4499 77.5453 74.1699C77.3607 73.8007 77.7872 73.6352 77.9845 73.4251C81.7784 69.3702 83.8409 64.6151 83.8536 59.0197C83.8536 57.11 83.8218 55.2067 83.2934 53.3543C83.1343 52.7941 83.3698 52.5522 83.9173 52.5522C84.0255 52.5522 84.1273 52.5522 84.2355 52.5522C95.2926 52.5522 106.35 52.5523 117.407 52.5586V74.3226V74.3099Z" fill="url(#paint1_linear_1083_7715)"/>
<g filter="url(#filter0_dii_1083_7715)">
<path d="M61.1407 18.1963C63.636 18.1963 66.125 18.1963 68.6203 18.1963C68.7731 18.2345 68.9258 18.2982 69.0786 18.3109C72.7261 18.5655 76.2399 19.4376 79.6646 20.6725C85.2791 22.6968 90.2315 25.7777 94.5729 29.8645C98.615 33.6647 101.836 38.057 104.185 43.0795C105.082 45.0019 105.865 46.9625 106.457 48.9995C106.61 49.5278 106.47 49.757 105.942 49.7825C105.757 49.7888 105.573 49.7952 105.388 49.7952C98.3095 49.7952 91.2309 49.7888 84.1524 49.8079C83.3567 49.8079 82.8474 49.5469 82.3764 48.8913C80.1866 45.8422 77.4048 43.4678 73.9801 41.9082C69.2759 39.763 64.3999 39.3747 59.3901 40.6351C54.7751 41.8 51.013 44.3208 48.0657 47.9874C44.8129 52.0359 43.3233 56.6892 43.4316 61.9153C43.527 66.6513 44.9975 70.8717 47.8875 74.5511C52.1779 80.0128 57.8942 82.8136 64.8327 82.8327C82.6501 82.89 100.467 82.8518 118.285 82.8518C118.813 82.8518 119.348 82.7945 119.857 82.9982V104.603C119.405 104.616 118.96 104.641 118.508 104.641C100.767 104.641 83.0193 104.622 65.2783 104.654C60.1349 104.667 55.157 103.897 50.3064 102.171C45.0739 100.306 40.3506 97.5627 36.213 93.877C29.4463 87.8424 24.8694 80.452 22.7179 71.6102C22.3932 70.2734 22.1195 68.9302 21.8203 67.5934C21.8203 63.4112 21.8203 59.229 21.8203 55.0468C21.9031 54.7667 22.0049 54.493 22.0622 54.2129C22.3869 52.7425 22.6287 51.2466 23.0425 49.8016C25.0604 42.7294 28.606 36.5293 33.7622 31.2458C39.8095 25.0457 47.06 21.0226 55.488 19.0875C57.3404 18.661 59.231 18.4064 61.1216 18.1899L61.1407 18.1963Z" fill="url(#paint2_linear_1083_7715)"/>
<path d="M119.864 77.1292C115.039 77.1356 110.214 77.1483 105.388 77.1483C97.4314 77.1483 89.4807 77.1483 81.5237 77.1483C81.2882 77.1483 81.0463 77.1611 80.8108 77.1483C80.5307 77.1292 80.1424 77.2693 80.0023 76.9892C79.8177 76.62 80.2442 76.4545 80.4416 76.2444C84.2355 72.1895 86.2979 67.4344 86.3106 61.839C86.3106 59.9294 86.2788 58.026 85.7505 56.1737C85.5913 55.6135 85.8268 55.3716 86.3743 55.3716C86.4825 55.3716 86.5844 55.3716 86.6926 55.3716C97.7496 55.3716 108.807 55.3716 119.864 55.378V77.142V77.1292Z" fill="url(#paint3_linear_1083_7715)"/>
</g>
<defs>
<filter id="filter0_dii_1083_7715" x="0.000312328" y="-10.9001" width="127.143" height="126.464" filterUnits="userSpaceOnUse" color-interpolation-filters="sRGB">
<feFlood flood-opacity="0" result="BackgroundImageFix"/>
<feColorMatrix in="SourceAlpha" type="matrix" values="0 0 0 0 0 0 0 0 0 0 0 0 0 0 0 0 0 0 127 0" result="hardAlpha"/>
<feOffset dx="-7.27" dy="-3.64"/>
<feGaussianBlur stdDeviation="7.275"/>
<feComposite in2="hardAlpha" operator="out"/>
<feColorMatrix type="matrix" values="0 0 0 0 0.992157 0 0 0 0 0.270588 0 0 0 0 0.47451 0 0 0 0.31 0"/>
<feBlend mode="normal" in2="BackgroundImageFix" result="effect1_dropShadow_1083_7715"/>
<feBlend mode="normal" in="SourceGraphic" in2="effect1_dropShadow_1083_7715" result="shape"/>
<feColorMatrix in="SourceAlpha" type="matrix" values="0 0 0 0 0 0 0 0 0 0 0 0 0 0 0 0 0 0 127 0" result="hardAlpha"/>
<feOffset dy="3.64"/>
<feGaussianBlur stdDeviation="2.725"/>
<feComposite in2="hardAlpha" operator="arithmetic" k2="-1" k3="1"/>
<feColorMatrix type="matrix" values="0 0 0 0 1 0 0 0 0 1 0 0 0 0 1 0 0 0 0.41 0"/>
<feBlend mode="normal" in2="shape" result="effect2_innerShadow_1083_7715"/>
<feColorMatrix in="SourceAlpha" type="matrix" values="0 0 0 0 0 0 0 0 0 0 0 0 0 0 0 0 0 0 127 0" result="hardAlpha"/>
<feOffset dy="-29.09"/>
<feGaussianBlur stdDeviation="14.545"/>
<feComposite in2="hardAlpha" operator="arithmetic" k2="-1" k3="1"/>
<feColorMatrix type="matrix" values="0 0 0 0 1 0 0 0 0 1 0 0 0 0 1 0 0 0 0.2 0"/>
<feBlend mode="normal" in2="effect2_innerShadow_1083_7715" result="effect3_innerShadow_1083_7715"/>
</filter>
<linearGradient id="paint0_linear_1083_7715" x1="68.3836" y1="15.3706" x2="68.3836" y2="101.835" gradientUnits="userSpaceOnUse">
<stop stop-color="#FF7A9F"/>
<stop offset="1" stop-color="#FD366E"/>
</linearGradient>
<linearGradient id="paint1_linear_1083_7715" x1="97.4534" y1="52.5522" x2="97.4534" y2="74.3474" gradientUnits="userSpaceOnUse">
<stop stop-color="#FF7A9F"/>
<stop offset="1" stop-color="#FD366E"/>
</linearGradient>
<linearGradient id="paint2_linear_1083_7715" x1="70.8387" y1="18.1899" x2="70.8387" y2="104.654" gradientUnits="userSpaceOnUse">
<stop stop-color="#FF7A9F"/>
<stop offset="1" stop-color="#FD366E"/>
</linearGradient>
<linearGradient id="paint3_linear_1083_7715" x1="99.9104" y1="55.3716" x2="99.9104" y2="77.1668" gradientUnits="userSpaceOnUse">
<stop stop-color="#FF7A9F"/>
<stop offset="1" stop-color="#FD366E"/>
</linearGradient>
</defs>
</svg>
