<svg width="115" height="116" viewBox="0 0 115 116" fill="none" xmlns="http://www.w3.org/2000/svg">
<path d="M0 62.7419C0 59.6205 0 56.4913 0 53.37C0.0540193 53.0586 0.115756 52.7472 0.146624 52.4281C0.671382 47.3218 1.75948 42.3634 3.5807 37.5529C7.9254 26.0481 15.164 16.8241 25.227 9.94304C36.7948 2.0345 49.6668 -1.12579 63.5421 0.353171C78.8758 1.98781 91.5395 8.93112 101.51 20.7472C108.316 28.8114 112.584 38.1445 114.228 48.6373C115.678 57.8613 115.123 66.9764 112.244 75.8735C109.08 85.6502 103.732 94.0336 96.1697 100.985C89.2475 107.344 81.2604 111.711 72.2469 114.202C68.9131 115.12 65.4945 115.564 62.0758 116H52.7845C52.5067 115.953 52.2366 115.883 51.9588 115.852C46.1324 115.315 40.5222 113.914 35.1357 111.61C27.2411 108.224 20.4193 103.335 14.6701 96.9059C8.56591 90.0871 4.34469 82.2408 1.88296 73.4215C0.91061 69.9265 0.432154 66.3459 0 62.7497V62.7419ZM36.3164 73.4916C35.6681 71.4911 35.2823 71.0552 33.4379 70.2457C32.9903 70.0511 32.6971 69.7164 32.4733 69.3038C31.9562 68.3386 31.7942 67.2566 31.4932 66.2291C30.9762 64.4699 31.0071 62.6485 30.4437 60.8815C29.7183 58.6086 30.2045 56.1644 30.3897 53.7981C30.6598 50.3264 30.9299 46.847 32.998 43.8579C33.1755 43.601 33.2836 43.2897 33.4148 42.9939C33.5151 42.7682 33.6926 42.4879 33.5305 42.2933C33.0829 41.7407 33.4765 41.367 33.762 40.9856C35.4829 38.6271 37.4662 36.5332 39.735 34.7039C40.7845 33.8633 41.8726 33.0693 43.2463 32.8514C43.3543 32.8358 43.7093 32.8903 43.4546 32.6023C43.0456 32.1352 43.555 32.034 43.7247 31.8005C45.0829 29.909 47.5678 30.1425 49.2578 28.8037C49.9678 28.2432 50.971 28.0097 51.7813 27.5037C53.1009 26.6786 54.5594 26.305 56.0951 26.2972C56.8746 26.2972 57.6385 26.2038 58.4102 26.1571C64.5221 25.7991 70.0244 27.1223 74.5543 31.6682C80.0951 37.226 81.9626 43.9435 81.2604 51.5952C81.2372 51.8754 81.1755 52.1634 81.2141 52.4359C81.5073 54.592 81.052 56.4758 79.3311 57.9158C78.8604 58.3128 78.6366 58.7876 78.6829 59.4026C78.7292 59.9708 78.5517 60.4534 78.135 60.8348C76.8462 62.0413 75.5575 63.2479 74.1453 64.3143C73.5665 64.7579 72.818 64.5322 72.3241 64.9759C70.3485 66.7351 67.8559 67.1476 65.4405 67.2021C56.89 67.3967 50.8553 59.0601 51.7813 51.3228C52.6456 44.1381 60.4475 39.7246 67.1614 42.2933C67.4392 42.4023 67.7093 42.6203 68.0488 42.5113C68.0257 42.4334 68.0257 42.3478 67.9794 42.3167C63.7427 38.9462 56.8128 39.8959 53.6257 44.2938C53.3324 44.6908 53.1009 45.1501 52.7614 45.5004C51.1794 47.1506 50.3922 49.3145 50.0064 51.3928C49.3659 54.81 49.7749 58.2505 51.7967 61.3096C53.2476 63.5047 55.2 65.1705 57.2064 66.7896C57.8546 67.3189 58.4411 67.9338 59.29 68.2063C62.7241 69.296 66.1967 69.514 69.708 68.7356C73.6205 67.8715 76.7922 65.7154 79.5472 62.8509C80.0565 62.3216 80.5273 61.8312 80.7974 61.0761C81.0134 60.469 81.0134 59.1613 82.3716 59.7762C82.3948 59.784 82.5183 59.6361 82.5414 59.5427C83.1665 57.5577 84.5093 55.8297 84.6173 53.658C84.6482 53.0119 84.8334 52.2024 85.2655 51.9299C86.0604 51.424 85.8134 50.6144 86.1607 50.0073C86.562 49.3145 86.616 48.6684 85.9909 48.0146C85.7671 47.7811 85.6823 47.244 85.7671 46.9015C86.0527 45.7416 85.5974 44.7686 85.1961 43.7567C85.088 43.4843 84.517 42.6748 85.6359 42.9939C85.7671 43.0328 85.8289 42.8693 85.7826 42.7837C85.2655 41.7796 85.852 40.3396 84.4398 39.6546C83.861 39.3743 83.7684 38.5882 83.8687 37.9343C83.9768 37.2571 84.6327 37.4439 85.0572 37.2727C85.7826 36.9924 85.8366 37.6774 86.0913 38.0433C86.3536 38.4247 86.562 38.845 86.7935 39.2498C86.454 38.09 87.2334 36.9457 86.7086 35.8171C84.6713 31.4425 81.6771 27.8929 77.7569 25.1296C77.5871 25.0129 77.3479 24.8027 77.2089 24.8494C76.0128 25.2308 75.3414 24.359 74.7626 23.6584C74.045 22.7711 73.2347 22.5687 72.2469 22.8256C71.4443 23.0357 70.7421 22.9034 70.0167 22.5142C68.2032 21.5412 66.243 20.973 64.2829 20.397C64.0823 20.3347 63.8585 20.2568 63.6655 20.2958C62.0527 20.6149 60.3858 20.3347 58.7807 20.7317C58.418 20.8173 57.9935 20.8406 57.7003 20.4904C57.3067 20.0233 56.7665 20.0389 56.2495 20.0078C55.663 19.9688 55.6707 19.9766 55.0688 19.4707C54.9916 19.4006 54.7987 19.4473 54.6675 19.4707C52.9929 19.782 51.326 19.9143 49.6823 20.576C46.117 22.0238 42.791 23.9387 39.6887 26.1338C36.0231 28.7258 33.191 32.1741 31.6553 36.541C31.5164 36.9302 31.2771 37.3972 30.953 37.5762C29.8726 38.1522 29.5022 39.2109 29.1241 40.215C27.8508 43.5699 26.1376 46.8314 26.7935 50.6378C26.8553 51.0114 26.7472 51.4162 26.7395 51.8054C26.5852 56.5614 26.4231 61.3252 27.4186 66.0112C29.4482 75.5154 34.2791 83.3306 41.6257 89.5656C45.2758 92.6636 49.3659 94.9754 54.0115 96.2053C55.771 96.6723 57.5537 96.8903 59.3749 96.758C59.2128 96.6568 59.0508 96.6101 58.881 96.5867C56.1337 96.2676 53.6797 95.3724 51.8662 93.1306C51.7659 93.0061 51.573 92.8504 51.434 92.866C49.7054 92.9827 48.7485 91.4259 47.2977 90.9433C47.1897 90.9122 47.0353 90.6942 47.0585 90.6397C47.4598 89.7835 46.6881 89.6589 46.2713 89.332C45.7389 88.9195 45.2295 88.4914 44.8283 87.9387C44.589 87.6118 44.3267 87.3237 43.8945 87.3315C43.2771 87.3315 42.9376 86.9346 42.6366 86.4909C42.1273 85.7281 41.7414 84.8485 41.1241 84.1946C40.0205 83.0348 39.1562 81.7037 38.2302 80.4194C37.6283 79.5865 37.3659 78.5667 36.9878 77.6482C36.7099 76.9866 36.6945 76.1537 36.2469 75.4609C35.7839 74.737 35.2437 74.0209 35.2437 73.0713C35.7067 72.9934 35.8456 73.4916 36.3087 73.4994L36.3164 73.4916ZM66.0501 71.0007C66.0501 71.0007 66.0887 70.9618 66.1119 70.9384C66.0501 70.9151 65.9884 70.8684 65.9266 70.8684C63.6115 70.7205 61.2192 70.7361 59.2668 69.2338C58.1324 68.3542 56.7125 68.1284 55.5704 67.0776C55.771 69.008 61.9369 71.2109 66.0424 71.0085L66.0501 71.0007Z" fill="url(#paint0_linear_1083_7711)"/>
<g filter="url(#filter0_dii_1083_7711)">
<mask id="path-2-inside-1_1083_7711" fill="white">
<path d="M56.899 97C55.6896 96.7403 54.463 96.6248 53.2651 96.267C47.8657 94.6682 43.2401 91.765 39.1705 87.8921C34.2296 83.1881 30.5899 77.6126 28.2857 71.1712C26.8355 67.1137 26.0388 62.9291 26.1076 58.6003C26.1477 56.1242 26.3598 53.6192 26.0789 51.1778C25.6949 47.8128 26.7782 44.8461 27.9017 41.8448C28.3373 40.6789 28.8761 39.5476 29.3633 38.399C29.518 38.0354 29.7072 37.7468 30.1485 37.6545C30.6357 37.5506 30.8478 37.1004 31.0427 36.6848C31.2834 36.1653 31.4955 35.6228 31.7133 35.0918C32.8081 32.4656 34.436 30.2262 36.5281 28.3215C37.5713 27.3691 38.5973 26.3995 39.6347 25.4471C39.7895 25.3028 39.9385 24.9104 40.2251 25.349C40.3455 25.5337 40.4773 25.3779 40.5748 25.2913C43.4923 22.821 46.9887 21.4473 50.4278 19.9697C51.1443 19.6638 51.7977 19.3002 52.7033 19.4502C53.5058 19.583 54.3828 19.2078 55.2311 19.0751C55.4489 19.0404 55.6839 18.925 55.9074 19.0751C55.873 19.4906 55.3973 19.4156 55.2597 19.7561C56.3259 19.8427 57.3691 19.9293 58.4237 20.0159C58.3492 20.368 57.9652 20.2179 57.8734 20.5123C58.4352 20.5527 58.9682 20.5296 59.507 20.4141C60.3496 20.2294 61.1979 20.1198 62.0577 20.3045C62.1953 20.3333 62.4016 20.391 62.4589 20.2641C62.7684 19.6119 63.1983 19.9813 63.5996 20.0967C65.9095 20.7893 68.2194 21.4704 70.3345 22.6767C70.7529 22.9133 71.1713 22.7806 71.584 22.6594C72.14 22.4862 72.696 22.4169 73.2749 22.5612C73.7335 22.6767 74.106 22.8556 74.3238 23.3289C74.6219 23.9753 75.2639 24.2524 75.8829 24.691C75.8772 24.287 75.4072 24.2062 75.4759 23.8657C79.2475 24.8122 86.9511 34.0644 87.1116 37.8334C86.825 37.8969 86.8479 37.5217 86.6358 37.4871C86.4123 39.9632 87.8452 42.1103 88 44.5171C87.7019 44.1939 87.6217 43.7783 87.5071 43.3858C86.9625 41.5158 86.3378 39.6746 85.4035 37.9546C85.2143 37.6083 85.0768 37.21 84.5781 37.6256C84.4921 37.7006 84.2972 37.6833 84.1654 37.6602C83.7699 37.5967 83.6151 37.8045 83.6667 38.1508C83.724 38.5549 83.8387 38.9473 83.9419 39.3398C83.9705 39.4553 84.0565 39.6111 84.1711 39.5822C85.0538 39.3745 85.1054 40.1133 85.1857 40.6039C85.3347 41.4812 85.5353 42.3469 85.7187 43.2127C85.7646 43.432 85.9423 43.7495 85.6614 43.8476C85.3978 43.9457 85.3232 43.5879 85.1799 43.4089C85.094 43.305 85.0882 43.1261 84.859 43.0915C85.008 43.8476 85.2487 44.5402 85.6385 45.1751C85.799 45.4348 85.8563 45.6253 85.6901 45.9485C85.3404 46.6123 85.65 47.3049 85.7646 47.986C85.7761 48.0668 85.8678 48.1938 85.9365 48.1995C86.8135 48.2688 86.4467 48.7998 86.2919 49.2096C85.8334 50.4217 85.4149 51.6395 85.5754 52.9901C85.1799 52.9497 85.2373 52.5803 84.9335 52.3033C84.2972 54.6004 83.7241 56.863 82.572 58.9004C82.4688 59.0851 82.4573 59.316 82.3713 59.5122C82.228 59.8412 82.4573 61.0187 81.6147 59.8643C81.4542 59.6392 81.2651 59.7777 81.1562 59.9567C80.8066 60.5281 80.4168 61.0822 80.5371 61.8209C80.5715 62.0287 80.5372 62.2538 80.4913 62.4558C80.4454 62.6579 80.3881 62.9464 80.1474 62.958C79.7863 62.9695 80.0614 62.5597 79.8379 62.3693C73.8137 68.9953 66.5744 71.0154 58.0511 68.1584C60.6878 70.7614 64.081 70.3978 67.3826 70.5941C67.2106 70.9692 66.8724 70.9692 66.5973 71.0385C65.2045 71.3675 63.8059 71.3271 62.4188 71.0443C57.8161 70.1035 53.9529 67.9044 51.0239 64.147C50.6685 63.691 50.68 63.6795 50.5482 63.0561C51.855 64.0835 52.6575 65.4341 53.9586 66.5654C53.6204 65.815 53.0128 65.4629 52.9498 64.7588C53.4083 65.1917 53.8612 65.6246 54.3254 66.0517C55.105 66.7674 55.9762 67.3561 56.899 67.8698C57.1054 67.9852 57.3805 68.2738 57.5754 67.9333C57.7359 67.6504 57.4264 67.4715 57.2258 67.3041C56.3775 66.6 55.5119 65.9247 54.6808 65.2032C51.9869 62.8426 49.9177 60.0952 49.3674 56.407C49.1095 54.6582 48.8687 52.817 49.4305 51.1893C50.1412 49.1288 50.5711 46.8374 52.3652 45.279C52.6747 45.0077 52.8122 44.546 53.0759 44.2054C54.933 41.7697 57.3805 40.4134 60.4127 40.0902C64.104 39.6919 67.0501 41.1579 69.5607 43.7495C69.6696 43.8649 69.8301 43.963 69.7785 44.1766C69.5435 44.2863 69.4346 44.0727 69.297 43.9688C62.4876 38.9589 52.9097 42.9991 51.6257 51.426C51.5512 51.9223 51.4825 52.4302 51.4882 52.9324C51.4882 53.2325 51.5971 53.5673 51.6372 53.8443C52.6403 61.0129 56.3717 65.6072 63.6282 66.9059C64.5109 67.0617 65.428 66.9925 66.3336 66.8424C67.4112 66.6635 68.4143 66.2191 69.5034 66.0459C70.644 65.867 71.5095 65.0878 72.3234 64.297C72.5584 64.0662 72.782 63.8122 73.1488 63.6621C73.2348 64.0777 72.7762 64.1701 72.7648 64.5568C73.8194 64.1066 74.5875 63.3101 75.4129 62.629C76.1122 62.0518 76.7656 61.4111 77.4592 60.8282C77.9005 60.4588 78.0954 60.0201 78.0667 59.443C78.0209 58.5541 78.2845 57.8326 79.173 57.4632C79.3507 57.3882 79.5283 57.2959 79.6086 57.1054C80.1302 55.8702 80.669 54.6351 80.7779 53.2729C80.5085 53.1575 80.5429 53.5904 80.2506 53.4576C80.4856 52.4707 80.5945 51.4548 80.6862 50.4332C80.8409 48.7421 80.755 47.0509 80.6002 45.3944C80.2047 41.2445 78.7202 37.4871 76.1179 34.1972C74.7709 32.4945 73.2692 30.9707 71.5267 29.6779C68.7869 27.6462 65.6344 26.8266 62.3214 26.4457C60.3209 26.2148 58.3377 26.336 56.3373 26.5842C55.5406 26.6823 54.7037 26.5438 53.8955 26.74C53.0816 26.942 52.2849 27.1902 51.5799 27.6577C50.5596 28.3273 49.4763 28.864 48.1121 29.1988C48.6566 29.3373 48.949 29.1238 49.27 29.0718C49.3903 29.0545 49.5279 29.0083 49.5967 29.1295C49.6884 29.2969 49.5451 29.3893 49.4247 29.4701C48.9948 29.7529 48.5134 29.8856 48.009 29.9087C46.2665 29.9895 44.7647 30.6244 43.5553 31.9058C43.4751 31.9866 43.4063 32.0789 43.2515 32.2578C43.5439 32.1886 43.7101 32.1482 43.9107 32.1078C43.9164 32.2174 43.9508 32.2982 43.9222 32.3502C43.7674 32.6503 43.6069 32.9851 43.2343 33.0255C41.4345 33.2102 40.1334 34.3357 38.838 35.4208C36.872 37.0715 35.1524 38.9704 33.6392 41.0541C33.4157 41.3657 32.9858 41.6659 33.5189 42.1392C33.7367 42.3296 33.473 42.6875 33.3526 42.9357C32.7107 44.2516 32.0744 45.5676 31.3924 46.8662C30.7504 48.0841 30.7905 49.4289 30.6529 50.7333C30.4237 52.9093 30.2001 55.0853 30.097 57.267C30.011 59.1601 30.0052 61.0706 31.0141 62.8021C31.2433 63.1946 31.0255 63.6506 31.0312 64.0835C31.037 64.3201 30.888 64.6087 30.9797 64.7934C31.6961 66.2248 31.421 67.9621 32.4011 69.307C32.6705 69.6763 32.9514 69.9649 33.4157 70.0169C34.2468 70.1035 34.82 70.5767 35.2098 71.2925C35.5651 71.9447 35.8918 72.6142 36.2186 73.2779C36.2988 73.4396 36.4765 73.6416 36.2931 73.8032C36.0867 73.9821 35.8976 73.7686 35.7199 73.6589C35.5594 73.555 35.4218 73.428 35.1009 73.1798C35.4505 74.3399 35.9893 75.1884 36.551 76.0253C36.7918 76.3832 37.0726 76.6602 36.7344 77.1624C36.4994 77.5144 36.9236 77.8088 37.1357 78.0801C37.3076 78.3052 37.5598 78.4668 37.7604 78.6688C37.8865 78.7958 38.0986 78.9112 37.7318 79.0555C37.4337 79.1767 37.663 79.4364 37.749 79.598C38.5056 81.0006 39.5029 82.23 40.4372 83.5056C40.4773 83.5633 40.5576 83.6672 40.5805 83.6556C41.4001 83.3151 41.1995 84.0827 41.3428 84.406C41.7211 85.2486 42.2427 85.9874 42.8045 86.7031C42.9592 86.8994 43.1598 87.0437 43.4177 87.0148C43.9909 86.9455 44.3176 87.2457 44.6558 87.6785C45.2691 88.4462 45.9627 89.1561 46.897 89.5428C47.2524 89.6871 47.3383 89.8661 47.0919 90.1835C46.9658 90.3509 46.7823 90.576 47.1205 90.6914C48.1523 91.0493 48.9089 91.8862 49.9005 92.3018C50.4966 92.5499 50.4909 92.5615 50.4909 91.8977C50.8692 91.9381 51.0583 92.2498 51.2532 92.4922C53.116 94.8818 55.661 95.8918 58.5555 96.267C59.5013 96.3882 60.4986 96.4344 61.3469 97H56.9105H56.899Z"/>
</mask>
<path d="M56.899 97C55.6896 96.7403 54.463 96.6248 53.2651 96.267C47.8657 94.6682 43.2401 91.765 39.1705 87.8921C34.2296 83.1881 30.5899 77.6126 28.2857 71.1712C26.8355 67.1137 26.0388 62.9291 26.1076 58.6003C26.1477 56.1242 26.3598 53.6192 26.0789 51.1778C25.6949 47.8128 26.7782 44.8461 27.9017 41.8448C28.3373 40.6789 28.8761 39.5476 29.3633 38.399C29.518 38.0354 29.7072 37.7468 30.1485 37.6545C30.6357 37.5506 30.8478 37.1004 31.0427 36.6848C31.2834 36.1653 31.4955 35.6228 31.7133 35.0918C32.8081 32.4656 34.436 30.2262 36.5281 28.3215C37.5713 27.3691 38.5973 26.3995 39.6347 25.4471C39.7895 25.3028 39.9385 24.9104 40.2251 25.349C40.3455 25.5337 40.4773 25.3779 40.5748 25.2913C43.4923 22.821 46.9887 21.4473 50.4278 19.9697C51.1443 19.6638 51.7977 19.3002 52.7033 19.4502C53.5058 19.583 54.3828 19.2078 55.2311 19.0751C55.4489 19.0404 55.6839 18.925 55.9074 19.0751C55.873 19.4906 55.3973 19.4156 55.2597 19.7561C56.3259 19.8427 57.3691 19.9293 58.4237 20.0159C58.3492 20.368 57.9652 20.2179 57.8734 20.5123C58.4352 20.5527 58.9682 20.5296 59.507 20.4141C60.3496 20.2294 61.1979 20.1198 62.0577 20.3045C62.1953 20.3333 62.4016 20.391 62.4589 20.2641C62.7684 19.6119 63.1983 19.9813 63.5996 20.0967C65.9095 20.7893 68.2194 21.4704 70.3345 22.6767C70.7529 22.9133 71.1713 22.7806 71.584 22.6594C72.14 22.4862 72.696 22.4169 73.2749 22.5612C73.7335 22.6767 74.106 22.8556 74.3238 23.3289C74.6219 23.9753 75.2639 24.2524 75.8829 24.691C75.8772 24.287 75.4072 24.2062 75.4759 23.8657C79.2475 24.8122 86.9511 34.0644 87.1116 37.8334C86.825 37.8969 86.8479 37.5217 86.6358 37.4871C86.4123 39.9632 87.8452 42.1103 88 44.5171C87.7019 44.1939 87.6217 43.7783 87.5071 43.3858C86.9625 41.5158 86.3378 39.6746 85.4035 37.9546C85.2143 37.6083 85.0768 37.21 84.5781 37.6256C84.4921 37.7006 84.2972 37.6833 84.1654 37.6602C83.7699 37.5967 83.6151 37.8045 83.6667 38.1508C83.724 38.5549 83.8387 38.9473 83.9419 39.3398C83.9705 39.4553 84.0565 39.6111 84.1711 39.5822C85.0538 39.3745 85.1054 40.1133 85.1857 40.6039C85.3347 41.4812 85.5353 42.3469 85.7187 43.2127C85.7646 43.432 85.9423 43.7495 85.6614 43.8476C85.3978 43.9457 85.3232 43.5879 85.1799 43.4089C85.094 43.305 85.0882 43.1261 84.859 43.0915C85.008 43.8476 85.2487 44.5402 85.6385 45.1751C85.799 45.4348 85.8563 45.6253 85.6901 45.9485C85.3404 46.6123 85.65 47.3049 85.7646 47.986C85.7761 48.0668 85.8678 48.1938 85.9365 48.1995C86.8135 48.2688 86.4467 48.7998 86.2919 49.2096C85.8334 50.4217 85.4149 51.6395 85.5754 52.9901C85.1799 52.9497 85.2373 52.5803 84.9335 52.3033C84.2972 54.6004 83.7241 56.863 82.572 58.9004C82.4688 59.0851 82.4573 59.316 82.3713 59.5122C82.228 59.8412 82.4573 61.0187 81.6147 59.8643C81.4542 59.6392 81.2651 59.7777 81.1562 59.9567C80.8066 60.5281 80.4168 61.0822 80.5371 61.8209C80.5715 62.0287 80.5372 62.2538 80.4913 62.4558C80.4454 62.6579 80.3881 62.9464 80.1474 62.958C79.7863 62.9695 80.0614 62.5597 79.8379 62.3693C73.8137 68.9953 66.5744 71.0154 58.0511 68.1584C60.6878 70.7614 64.081 70.3978 67.3826 70.5941C67.2106 70.9692 66.8724 70.9692 66.5973 71.0385C65.2045 71.3675 63.8059 71.3271 62.4188 71.0443C57.8161 70.1035 53.9529 67.9044 51.0239 64.147C50.6685 63.691 50.68 63.6795 50.5482 63.0561C51.855 64.0835 52.6575 65.4341 53.9586 66.5654C53.6204 65.815 53.0128 65.4629 52.9498 64.7588C53.4083 65.1917 53.8612 65.6246 54.3254 66.0517C55.105 66.7674 55.9762 67.3561 56.899 67.8698C57.1054 67.9852 57.3805 68.2738 57.5754 67.9333C57.7359 67.6504 57.4264 67.4715 57.2258 67.3041C56.3775 66.6 55.5119 65.9247 54.6808 65.2032C51.9869 62.8426 49.9177 60.0952 49.3674 56.407C49.1095 54.6582 48.8687 52.817 49.4305 51.1893C50.1412 49.1288 50.5711 46.8374 52.3652 45.279C52.6747 45.0077 52.8122 44.546 53.0759 44.2054C54.933 41.7697 57.3805 40.4134 60.4127 40.0902C64.104 39.6919 67.0501 41.1579 69.5607 43.7495C69.6696 43.8649 69.8301 43.963 69.7785 44.1766C69.5435 44.2863 69.4346 44.0727 69.297 43.9688C62.4876 38.9589 52.9097 42.9991 51.6257 51.426C51.5512 51.9223 51.4825 52.4302 51.4882 52.9324C51.4882 53.2325 51.5971 53.5673 51.6372 53.8443C52.6403 61.0129 56.3717 65.6072 63.6282 66.9059C64.5109 67.0617 65.428 66.9925 66.3336 66.8424C67.4112 66.6635 68.4143 66.2191 69.5034 66.0459C70.644 65.867 71.5095 65.0878 72.3234 64.297C72.5584 64.0662 72.782 63.8122 73.1488 63.6621C73.2348 64.0777 72.7762 64.1701 72.7648 64.5568C73.8194 64.1066 74.5875 63.3101 75.4129 62.629C76.1122 62.0518 76.7656 61.4111 77.4592 60.8282C77.9005 60.4588 78.0954 60.0201 78.0667 59.443C78.0209 58.5541 78.2845 57.8326 79.173 57.4632C79.3507 57.3882 79.5283 57.2959 79.6086 57.1054C80.1302 55.8702 80.669 54.6351 80.7779 53.2729C80.5085 53.1575 80.5429 53.5904 80.2506 53.4576C80.4856 52.4707 80.5945 51.4548 80.6862 50.4332C80.8409 48.7421 80.755 47.0509 80.6002 45.3944C80.2047 41.2445 78.7202 37.4871 76.1179 34.1972C74.7709 32.4945 73.2692 30.9707 71.5267 29.6779C68.7869 27.6462 65.6344 26.8266 62.3214 26.4457C60.3209 26.2148 58.3377 26.336 56.3373 26.5842C55.5406 26.6823 54.7037 26.5438 53.8955 26.74C53.0816 26.942 52.2849 27.1902 51.5799 27.6577C50.5596 28.3273 49.4763 28.864 48.1121 29.1988C48.6566 29.3373 48.949 29.1238 49.27 29.0718C49.3903 29.0545 49.5279 29.0083 49.5967 29.1295C49.6884 29.2969 49.5451 29.3893 49.4247 29.4701C48.9948 29.7529 48.5134 29.8856 48.009 29.9087C46.2665 29.9895 44.7647 30.6244 43.5553 31.9058C43.4751 31.9866 43.4063 32.0789 43.2515 32.2578C43.5439 32.1886 43.7101 32.1482 43.9107 32.1078C43.9164 32.2174 43.9508 32.2982 43.9222 32.3502C43.7674 32.6503 43.6069 32.9851 43.2343 33.0255C41.4345 33.2102 40.1334 34.3357 38.838 35.4208C36.872 37.0715 35.1524 38.9704 33.6392 41.0541C33.4157 41.3657 32.9858 41.6659 33.5189 42.1392C33.7367 42.3296 33.473 42.6875 33.3526 42.9357C32.7107 44.2516 32.0744 45.5676 31.3924 46.8662C30.7504 48.0841 30.7905 49.4289 30.6529 50.7333C30.4237 52.9093 30.2001 55.0853 30.097 57.267C30.011 59.1601 30.0052 61.0706 31.0141 62.8021C31.2433 63.1946 31.0255 63.6506 31.0312 64.0835C31.037 64.3201 30.888 64.6087 30.9797 64.7934C31.6961 66.2248 31.421 67.9621 32.4011 69.307C32.6705 69.6763 32.9514 69.9649 33.4157 70.0169C34.2468 70.1035 34.82 70.5767 35.2098 71.2925C35.5651 71.9447 35.8918 72.6142 36.2186 73.2779C36.2988 73.4396 36.4765 73.6416 36.2931 73.8032C36.0867 73.9821 35.8976 73.7686 35.7199 73.6589C35.5594 73.555 35.4218 73.428 35.1009 73.1798C35.4505 74.3399 35.9893 75.1884 36.551 76.0253C36.7918 76.3832 37.0726 76.6602 36.7344 77.1624C36.4994 77.5144 36.9236 77.8088 37.1357 78.0801C37.3076 78.3052 37.5598 78.4668 37.7604 78.6688C37.8865 78.7958 38.0986 78.9112 37.7318 79.0555C37.4337 79.1767 37.663 79.4364 37.749 79.598C38.5056 81.0006 39.5029 82.23 40.4372 83.5056C40.4773 83.5633 40.5576 83.6672 40.5805 83.6556C41.4001 83.3151 41.1995 84.0827 41.3428 84.406C41.7211 85.2486 42.2427 85.9874 42.8045 86.7031C42.9592 86.8994 43.1598 87.0437 43.4177 87.0148C43.9909 86.9455 44.3176 87.2457 44.6558 87.6785C45.2691 88.4462 45.9627 89.1561 46.897 89.5428C47.2524 89.6871 47.3383 89.8661 47.0919 90.1835C46.9658 90.3509 46.7823 90.576 47.1205 90.6914C48.1523 91.0493 48.9089 91.8862 49.9005 92.3018C50.4966 92.5499 50.4909 92.5615 50.4909 91.8977C50.8692 91.9381 51.0583 92.2498 51.2532 92.4922C53.116 94.8818 55.661 95.8918 58.5555 96.267C59.5013 96.3882 60.4986 96.4344 61.3469 97H56.9105H56.899Z" fill="url(#paint1_linear_1083_7711)" stroke="white" stroke-opacity="0.4" stroke-width="2" mask="url(#path-2-inside-1_1083_7711)"/>
</g>
<defs>
<filter id="filter0_dii_1083_7711" x="4.18" y="-10.09" width="91.1" height="118" filterUnits="userSpaceOnUse" color-interpolation-filters="sRGB">
<feFlood flood-opacity="0" result="BackgroundImageFix"/>
<feColorMatrix in="SourceAlpha" type="matrix" values="0 0 0 0 0 0 0 0 0 0 0 0 0 0 0 0 0 0 127 0" result="hardAlpha"/>
<feOffset dx="-7.27" dy="-3.64"/>
<feGaussianBlur stdDeviation="7.275"/>
<feComposite in2="hardAlpha" operator="out"/>
<feColorMatrix type="matrix" values="0 0 0 0 0.858824 0 0 0 0 0.0588235 0 0 0 0 0.345098 0 0 0 0.56 0"/>
<feBlend mode="normal" in2="BackgroundImageFix" result="effect1_dropShadow_1083_7711"/>
<feBlend mode="normal" in="SourceGraphic" in2="effect1_dropShadow_1083_7711" result="shape"/>
<feColorMatrix in="SourceAlpha" type="matrix" values="0 0 0 0 0 0 0 0 0 0 0 0 0 0 0 0 0 0 127 0" result="hardAlpha"/>
<feOffset dy="3.64"/>
<feGaussianBlur stdDeviation="2.725"/>
<feComposite in2="hardAlpha" operator="arithmetic" k2="-1" k3="1"/>
<feColorMatrix type="matrix" values="0 0 0 0 1 0 0 0 0 1 0 0 0 0 1 0 0 0 0.41 0"/>
<feBlend mode="normal" in2="shape" result="effect2_innerShadow_1083_7711"/>
<feColorMatrix in="SourceAlpha" type="matrix" values="0 0 0 0 0 0 0 0 0 0 0 0 0 0 0 0 0 0 127 0" result="hardAlpha"/>
<feOffset dy="-29.09"/>
<feGaussianBlur stdDeviation="21.82"/>
<feComposite in2="hardAlpha" operator="arithmetic" k2="-1" k3="1"/>
<feColorMatrix type="matrix" values="0 0 0 0 1 0 0 0 0 1 0 0 0 0 1 0 0 0 0.46 0"/>
<feBlend mode="normal" in2="effect2_innerShadow_1083_7711" result="effect3_innerShadow_1083_7711"/>
</filter>
<linearGradient id="paint0_linear_1083_7711" x1="57.5" y1="0" x2="57.5" y2="116" gradientUnits="userSpaceOnUse">
<stop stop-color="#FFB6D0"/>
<stop offset="0.514423" stop-color="#FF2D78"/>
<stop offset="1" stop-color="#E91E66"/>
</linearGradient>
<linearGradient id="paint1_linear_1083_7711" x1="57" y1="19" x2="57" y2="97" gradientUnits="userSpaceOnUse">
<stop stop-color="#FF629A"/>
<stop offset="0.456731" stop-color="#FF337C"/>
<stop offset="1" stop-color="#D70A53"/>
</linearGradient>
</defs>
</svg>
