<svg width="275" height="275" viewBox="0 0 275 275" fill="none" xmlns="http://www.w3.org/2000/svg">
<g clip-path="url(#clip0_1456_1077)">
<g filter="url(#filter0_din_1456_1077)">
<path d="M108.537 35.707C118.989 30.6737 124.215 28.1571 129.679 27.1655C134.52 26.2869 139.48 26.2869 144.321 27.1655C149.785 28.1571 155.011 30.6737 165.463 35.7069L202.357 53.4743C212.809 58.5075 218.034 61.0241 222.217 64.6782C225.922 67.9153 229.014 71.7929 231.346 76.1255C233.978 81.0162 235.268 86.6709 237.85 97.9805L246.962 137.903C249.543 149.213 250.834 154.868 250.584 160.416C250.364 165.331 249.26 170.166 247.326 174.69C245.144 179.797 241.527 184.332 234.294 193.402L208.763 225.417C201.53 234.487 197.914 239.022 193.421 242.286C189.44 245.178 184.972 247.33 180.229 248.639C174.875 250.116 169.075 250.116 157.475 250.116H116.525C104.925 250.116 99.1247 250.116 93.771 248.639C89.0282 247.33 84.5598 245.178 80.5793 242.286C76.0862 239.022 72.4698 234.487 65.2371 225.417L39.7055 193.402C32.4728 184.332 28.8564 179.797 26.6736 174.69C24.7399 170.166 23.6363 165.331 23.4156 160.416C23.1664 154.868 24.457 149.213 27.0384 137.903L36.1505 97.9805C38.7318 86.6709 40.0225 81.0162 42.6543 76.1255C44.9857 71.7929 48.078 67.9153 51.7832 64.6782C55.9656 61.0241 61.1914 58.5075 71.643 53.4743L108.537 35.707Z" fill="#326CE5"/>
</g>
<g filter="url(#filter1_i_1456_1077)">
<path fill-rule="evenodd" clip-rule="evenodd" d="M136.992 60C139.502 60 141.539 62.289 141.539 65.1018C141.539 65.4971 141.557 66.0396 141.548 66.4073C141.484 68.0343 141.139 69.2753 140.93 70.7737C140.548 73.9726 140.211 76.6293 140.411 79.0928C140.593 80.3337 141.303 80.821 141.894 81.3909L142.003 83.4407C156.362 84.7594 169.759 91.302 179.706 101.853L181.433 100.612C182.015 100.649 183.307 100.823 184.189 100.309C186.217 98.9207 188.071 97.0083 190.308 94.7103C191.336 93.6072 192.091 92.5592 193.31 91.4929C193.592 91.254 194.01 90.9322 194.319 90.6841C196.492 88.9284 199.53 89.1122 201.094 91.0978C202.658 93.0833 202.158 96.1074 199.975 97.8631C199.666 98.1113 199.266 98.4609 198.975 98.6815C197.684 99.6467 196.492 100.134 195.201 100.906C192.482 102.597 190.236 104.004 188.445 105.704C187.599 106.614 187.662 107.469 187.589 108.296C187.344 108.536 186.453 109.326 185.98 109.758C189.998 115.803 192.884 122.543 194.492 129.641C196.097 136.669 196.42 143.933 195.446 151.078L197.274 151.62C197.602 152.089 198.284 153.238 199.238 153.605C201.575 154.35 204.195 154.626 207.378 154.966C208.869 155.085 210.151 155.012 211.733 155.316C212.115 155.389 212.67 155.536 213.052 155.628C215.735 156.28 217.444 158.772 216.899 161.217C216.344 163.671 213.734 165.16 211.034 164.572L210.969 164.563L210.887 164.536C210.506 164.453 210.033 164.37 209.705 164.278C208.15 163.865 207.032 163.239 205.632 162.687C202.631 161.603 200.139 160.693 197.72 160.334C196.483 160.243 195.855 160.831 195.173 161.291C194.837 161.217 193.819 161.033 193.237 160.941C188.844 174.911 179.522 186.762 167.047 194.236C167.265 194.769 167.638 195.89 167.802 196.092C167.52 196.864 167.092 197.6 167.456 198.795C168.338 201.112 169.757 203.364 171.485 206.084C172.312 207.344 173.167 208.309 173.922 209.743C174.103 210.092 174.331 210.616 174.513 210.975C175.677 213.503 174.822 216.417 172.576 217.502C170.32 218.605 167.511 217.446 166.301 214.909C166.128 214.551 165.883 214.063 165.737 213.723C165.092 212.234 164.873 210.957 164.418 209.523C163.391 206.462 162.545 203.934 161.309 201.801C160.617 200.763 159.763 200.634 158.981 200.376L158.016 198.611C144.508 203.791 129.585 203.752 116.103 198.501L115.076 200.385C114.303 200.597 113.576 200.799 113.121 201.35C111.466 203.345 110.802 206.544 109.602 209.596C109.147 211.039 108.929 212.317 108.292 213.806C108.147 214.146 107.911 214.615 107.729 214.974V214.992C106.51 217.52 103.709 218.687 101.454 217.584C99.2077 216.49 98.353 213.585 99.5169 211.057C99.6897 210.699 99.917 210.166 100.099 209.826C100.854 208.383 101.709 207.408 102.536 206.158C104.255 203.437 105.764 201.001 106.646 198.685C106.873 197.922 106.546 196.864 106.246 196.092L107.065 194.088C94.6353 186.672 85.3196 174.914 80.875 161.033L78.9016 161.373C78.3741 161.079 77.3005 160.362 76.2821 160.445C73.8633 160.803 71.3718 161.713 68.3712 162.798C66.9707 163.34 65.8425 163.956 64.2966 164.379L63.124 164.645L63.0326 164.673L62.9692 164.682C60.2774 165.271 57.6587 163.781 57.104 161.327C56.5493 158.882 58.2681 156.391 60.9507 155.738L61.0141 155.72L61.0502 155.701C61.4412 155.609 61.9232 155.49 62.2597 155.425C63.8511 155.122 65.1335 155.196 66.6248 155.067C69.7985 154.727 72.4265 154.46 74.7636 153.716C75.5093 153.413 76.2185 152.383 76.7186 151.721L78.6103 151.169C76.5471 136.679 79.8505 121.928 87.8862 109.749L86.4312 108.434C86.3403 107.864 86.2129 106.541 85.5219 105.787C83.7304 104.096 81.4842 102.689 78.7651 100.989C77.4739 100.226 76.2915 99.7296 75.0003 98.7646L74.0541 98.001L73.9907 97.955C71.8085 96.1994 71.3082 93.1663 72.872 91.1808C73.307 90.6426 73.8619 90.215 74.4907 89.9339C75.1195 89.6529 75.805 89.5257 76.4915 89.5625C77.6477 89.6138 78.757 90.0394 79.656 90.776C79.9652 91.015 80.3928 91.3458 80.6656 91.5848C81.8842 92.6419 82.63 93.6902 83.6575 94.7933C85.8945 97.0913 87.75 99.0033 89.7778 100.382C90.8417 101.016 91.6601 100.759 92.4785 100.649C93.0189 101.048 93.5643 101.441 94.1149 101.825C104.045 91.1489 117.549 84.5862 132 83.4132L132.109 81.4732C132.813 80.8403 133.324 80.0176 133.582 79.1017C133.782 76.629 133.455 73.9725 133.073 70.7737C132.864 69.2753 132.518 68.0343 132.464 66.4073C132.445 66.0764 132.464 65.6076 132.464 65.2308L132.454 65.1018C132.454 62.2891 134.491 60.0002 136.992 60ZM136.846 164.682C136.147 164.709 135.466 164.92 134.872 165.296C134.279 165.672 133.793 166.199 133.464 166.824H133.445L121.915 187.893C131.718 191.274 142.351 191.283 152.16 187.921L140.611 166.815H140.521C140.17 166.146 139.638 165.59 138.988 165.212C138.338 164.835 137.595 164.651 136.846 164.682ZM157.69 154.929C156.857 154.774 155.997 154.89 155.234 155.26C154.299 155.711 153.575 156.512 153.212 157.492C152.849 158.473 152.876 159.558 153.288 160.518L153.26 160.555L162.446 182.966C171.222 177.302 177.88 168.844 181.369 158.928L157.726 154.883L157.69 154.929ZM118.382 155.219C117.704 154.963 116.97 154.898 116.258 155.03L116.222 154.984L92.7786 159.002C96.2977 168.841 102.93 177.232 111.648 182.874L120.733 160.693L120.669 160.601H120.66C120.945 159.929 121.044 159.19 120.946 158.466C120.849 157.741 120.56 157.056 120.108 156.484C119.656 155.913 119.06 155.475 118.382 155.219ZM128.79 140.957L130.417 148.109L136.992 151.317L143.557 148.127L145.195 140.957L140.647 135.23H133.336L128.79 140.957ZM96.8524 117.857C91.4124 126.808 89.0763 137.336 90.2137 147.778L113.075 141.113L113.094 141.03C113.792 140.837 114.425 140.456 114.926 139.928C115.426 139.4 115.776 138.745 115.938 138.032C116.099 137.319 116.066 136.575 115.842 135.879C115.619 135.183 115.212 134.562 114.667 134.081L114.685 133.98L96.8524 117.857ZM177.014 117.866L159.28 133.916V133.962C158.733 134.442 158.324 135.064 158.099 135.761C157.874 136.458 157.84 137.204 158.002 137.918C158.163 138.633 158.514 139.29 159.016 139.818C159.519 140.347 160.154 140.728 160.854 140.92L160.882 141.012L183.852 147.705C184.351 142.555 184.019 137.358 182.87 132.316C181.714 127.205 179.736 122.32 177.014 117.857V117.866ZM131.318 95.6021C120.99 96.8225 111.358 101.487 103.945 108.858L123.469 122.858L123.506 122.829C124.091 123.261 124.781 123.524 125.503 123.591C126.224 123.657 126.95 123.524 127.602 123.206C128.255 122.888 128.81 122.397 129.208 121.785C129.606 121.173 129.832 120.464 129.863 119.732L129.953 119.686L131.318 95.6021ZM144.04 119.649L144.058 119.658C144.089 120.39 144.316 121.101 144.715 121.713C145.114 122.325 145.67 122.816 146.324 123.133C146.978 123.451 147.705 123.582 148.427 123.514C149.149 123.446 149.839 123.181 150.423 122.747L150.496 122.775L169.902 108.867C162.515 101.554 152.955 96.8961 142.694 95.611L144.04 119.649Z" fill="white" fill-opacity="0.71"/>
</g>
</g>
<defs>
<filter id="filter0_din_1456_1077" x="-1.61475" y="1.50659" width="277.229" height="288.61" filterUnits="userSpaceOnUse" color-interpolation-filters="sRGB">
<feFlood flood-opacity="0" result="BackgroundImageFix"/>
<feColorMatrix in="SourceAlpha" type="matrix" values="0 0 0 0 0 0 0 0 0 0 0 0 0 0 0 0 0 0 127 0" result="hardAlpha"/>
<feOffset/>
<feGaussianBlur stdDeviation="12.5"/>
<feComposite in2="hardAlpha" operator="out"/>
<feColorMatrix type="matrix" values="0 0 0 0 0.603922 0 0 0 0 0.713726 0 0 0 0 0.94902 0 0 0 0.25 0"/>
<feBlend mode="normal" in2="BackgroundImageFix" result="effect1_dropShadow_1456_1077"/>
<feBlend mode="normal" in="SourceGraphic" in2="BackgroundImageFix" result="shape"/>
<feColorMatrix in="SourceAlpha" type="matrix" values="0 0 0 0 0 0 0 0 0 0 0 0 0 0 0 0 0 0 127 0" result="hardAlpha"/>
<feOffset dy="42"/>
<feGaussianBlur stdDeviation="20"/>
<feComposite in2="hardAlpha" operator="arithmetic" k2="-1" k3="1"/>
<feColorMatrix type="matrix" values="0 0 0 0 0.480769 0 0 0 0 0.649012 0 0 0 0 1 0 0 0 1 0"/>
<feBlend mode="normal" in2="shape" result="effect2_innerShadow_1456_1077"/>
<feTurbulence type="fractalNoise" baseFrequency="2 2" stitchTiles="stitch" numOctaves="3" result="noise" seed="1481" />
<feColorMatrix in="noise" type="luminanceToAlpha" result="alphaNoise" />
<feComponentTransfer in="alphaNoise" result="coloredNoise1">
<feFuncA type="discrete" tableValues="0 0 0 0 0 0 0 0 0 0 0 0 0 0 1 1 1 1 1 1 1 1 1 1 1 1 1 1 1 1 1 1 1 1 1 0 0 0 0 0 0 0 0 0 0 0 0 0 0 0 0 0 0 0 0 0 0 0 0 0 0 0 0 0 0 0 0 0 0 0 0 0 0 0 0 0 0 0 0 0 0 0 0 0 0 0 0 0 0 0 0 0 0 0 0 0 0 0 0 0 "/>
</feComponentTransfer>
<feComposite operator="in" in2="effect2_innerShadow_1456_1077" in="coloredNoise1" result="noise1Clipped" />
<feFlood flood-color="rgba(255, 255, 255, 0.38)" result="color1Flood" />
<feComposite operator="in" in2="noise1Clipped" in="color1Flood" result="color1" />
<feMerge result="effect3_noise_1456_1077">
<feMergeNode in="effect2_innerShadow_1456_1077" />
<feMergeNode in="color1" />
</feMerge>
<feBlend mode="normal" in="effect3_noise_1456_1077" in2="effect1_dropShadow_1456_1077" result="effect3_noise_1456_1077"/>
</filter>
<filter id="filter1_i_1456_1077" x="57" y="60" width="160" height="158" filterUnits="userSpaceOnUse" color-interpolation-filters="sRGB">
<feFlood flood-opacity="0" result="BackgroundImageFix"/>
<feBlend mode="normal" in="SourceGraphic" in2="BackgroundImageFix" result="shape"/>
<feColorMatrix in="SourceAlpha" type="matrix" values="0 0 0 0 0 0 0 0 0 0 0 0 0 0 0 0 0 0 127 0" result="hardAlpha"/>
<feOffset/>
<feGaussianBlur stdDeviation="5"/>
<feComposite in2="hardAlpha" operator="arithmetic" k2="-1" k3="1"/>
<feColorMatrix type="matrix" values="0 0 0 0 1 0 0 0 0 1 0 0 0 0 1 0 0 0 1 0"/>
<feBlend mode="normal" in2="shape" result="effect1_innerShadow_1456_1077"/>
</filter>
<clipPath id="clip0_1456_1077">
<rect width="275" height="275" fill="white"/>
</clipPath>
</defs>
</svg>
