<svg width="275" height="275" viewBox="0 0 275 275" fill="none" xmlns="http://www.w3.org/2000/svg">
<g clip-path="url(#clip0_1456_957)">
<g filter="url(#filter0_din_1456_957)">
<circle cx="138" cy="137.013" r="111" fill="#73BA25"/>
</g>
<mask id="mask0_1456_957" style="mask-type:alpha" maskUnits="userSpaceOnUse" x="27" y="26" width="222" height="223">
<circle cx="138" cy="137.013" r="111" fill="#73BA25"/>
</mask>
<g mask="url(#mask0_1456_957)">
<g filter="url(#filter1_i_1456_957)">
<path d="M162.907 104.784C160.453 104.684 158.004 105.077 155.702 105.939C153.4 106.802 151.293 108.117 149.503 109.809C146.816 112.36 144.937 115.651 144.1 119.271C143.264 122.89 143.507 126.677 144.8 130.159C146.093 133.64 148.378 136.66 151.37 138.843C154.362 141.025 157.927 142.273 161.62 142.43C166.584 142.599 171.413 140.783 175.047 137.38C178.681 133.976 180.824 129.263 181.007 124.273C181.171 119.281 179.36 114.427 175.971 110.774C172.582 107.122 167.873 104.968 162.907 104.784ZM165.974 125.377C161.393 125.377 157.682 122.884 157.682 119.819C157.682 116.717 161.393 114.243 165.974 114.243C170.575 114.243 174.305 116.717 174.305 119.819C174.305 122.865 170.575 125.377 165.974 125.377ZM209.633 147.835C209.765 147.721 210.087 147.454 210.049 147.188C209.008 140.66 199.353 109.047 192.026 101.434C190.019 99.3599 188.409 97.3235 185.134 95.4012C158.666 79.909 95.9052 70.5452 92.9517 70.1265C92.9517 70.1265 92.6677 70.0504 92.4594 70.2597C92.289 70.412 92.2701 70.7165 92.2701 70.7165L91.9861 85.2571C85.568 83.0874 38.975 67.9378 -4.72125 66.4152C-41.7533 65.1401 -95.711 60.3059 -167.238 104.518L-169.34 105.85C-202.983 126.918 -226.213 152.935 -238.349 183.14C-242.154 192.656 -247.285 214.124 -242.211 234.298C-240.015 243.129 -235.944 251.998 -230.454 259.934C-218.034 277.882 -197.189 289.777 -174.735 291.794C-143.042 294.649 -119.055 280.337 -110.516 253.54C-104.647 235.059 -110.516 207.919 -133.008 194.083C-151.316 182.835 -170.987 185.385 -182.403 192.979C-192.305 199.583 -197.909 209.842 -197.814 221.09C-197.587 241.073 -180.453 251.693 -168.147 251.731C-164.569 251.731 -160.99 251.103 -156.939 249.771C-155.427 249.334 -153.982 248.694 -152.641 247.868L-152.168 247.582L-151.884 247.392L-151.978 247.449C-150.214 246.256 -148.867 244.535 -148.13 242.53C-147.392 240.525 -147.302 238.337 -147.87 236.277C-148.563 233.844 -150.135 231.758 -152.279 230.431C-154.423 229.103 -156.983 228.629 -159.457 229.102L-160.138 229.254L-161.085 229.54L-162.448 230.016C-165.288 230.72 -167.408 230.777 -167.863 230.796C-169.302 230.701 -176.382 228.569 -176.382 220.766V220.671C-176.382 217.797 -175.247 215.78 -174.622 214.695C-172.407 211.212 -166.386 207.805 -158.226 208.509C-147.529 209.461 -139.805 214.98 -134.693 225.372C-129.96 235.04 -131.191 246.954 -137.912 255.671C-144.538 264.312 -156.39 267.985 -172.161 266.272C-179.903 265.462 -187.324 262.73 -193.755 258.322C-200.186 253.913 -205.426 247.966 -209.003 241.016C-216.368 227.028 -216.766 210.432 -210.045 197.699C-193.952 167.172 -163.565 167.495 -146.923 170.388C-122.273 174.689 -94.2153 197.547 -84.2757 223.944C-82.6665 228.132 -81.8524 231.481 -81.1329 234.526L-80.0538 239.094L-52.223 252.759C-51.6171 253.045 -51.4089 253.14 -51.1817 252.969C-50.8788 252.759 -51.0492 252.169 -51.0492 252.169C-51.2385 251.541 -51.6171 250.97 -52.2798 243.129C-52.7909 236.182 -53.8701 217.15 -44.3281 207.729C-40.6363 204.018 -35.0133 200.744 -30.5452 199.678C-12.2943 195.206 9.09949 198.289 29.3384 221.832C39.8081 234.013 44.9198 239.532 47.4947 242.025C47.4947 242.025 48.0626 242.596 48.3845 242.843C48.7253 243.129 48.9525 243.357 49.4258 243.624C50.2777 244.1 84.2238 259.801 84.2238 259.801C84.2238 259.801 84.6403 260.01 84.9243 259.649C85.2272 259.268 84.9432 258.926 84.9432 258.926C84.716 258.659 63.4169 230.986 67.2034 208.205C70.1948 190.048 84.5646 191.704 104.444 193.95C110.938 194.711 118.321 195.568 125.97 195.739C147.307 195.872 170.31 191.913 184.472 185.671C193.654 181.674 199.504 179.01 203.177 175.66C204.502 174.556 205.184 172.767 205.884 170.845L206.395 169.589C206.982 168.028 207.853 164.754 208.232 162.965C208.402 162.166 208.573 161.386 207.929 160.872C207.323 160.415 205.96 161.253 205.96 161.253C199.731 165.021 184.188 172.158 169.628 172.462C151.567 172.824 114.97 154.077 111.184 152.098C108.647 146.008 106.11 139.936 103.535 133.884C129.719 151.223 151.434 160.815 168.057 162.28C186.554 163.955 201 153.792 207.247 149.567C208.061 149.034 208.876 148.425 209.633 147.816V147.835ZM135.361 122.884C135.626 115.67 138.636 108.99 143.88 104.08C146.457 101.659 149.485 99.7732 152.789 98.5321C156.094 97.2909 159.609 96.7185 163.135 96.8477C170.254 97.1107 176.98 100.198 181.841 105.434C186.702 110.67 189.302 117.629 189.072 124.787C188.788 132 185.778 138.68 180.552 143.572C175.308 148.52 168.474 151.07 161.26 150.823C154.149 150.545 147.435 147.452 142.583 142.218C137.732 136.984 135.135 130.034 135.361 122.884Z" fill="white" fill-opacity="0.79"/>
</g>
<path d="M-166.704 105.361C-95.4539 61.3242 -41.7646 66.1394 -4.75635 67.4138V67.4148C38.7844 68.9319 85.2599 84.0394 91.6655 86.2048L92.9595 86.6414L92.9858 85.2761L93.2612 71.1833C96.3468 71.6395 111.89 74.0373 130.007 78.0876C149.382 82.419 171.546 88.6066 184.629 96.2644V96.2634C187.754 98.0973 189.246 99.998 191.305 102.127V102.128C193.015 103.904 194.935 107.177 196.882 111.303C198.815 115.4 200.729 120.237 202.453 125.054C205.803 134.419 208.391 143.598 209.006 147.037C208.267 147.632 207.479 148.22 206.7 148.73L206.694 148.734L206.687 148.738C200.416 152.979 186.247 162.923 168.147 161.284H168.145C151.779 159.841 130.236 150.366 104.087 133.051L101.312 131.213L102.615 134.276C105.188 140.324 107.724 146.393 110.26 152.482L110.4 152.816L110.72 152.984C112.627 153.981 122.753 159.178 134.672 164.083C140.632 166.535 147.055 168.921 153.132 170.673C158.814 172.31 164.257 173.411 168.76 173.466L169.649 173.463C184.454 173.153 200.174 165.922 206.478 162.108L206.481 162.106C206.481 162.106 206.484 162.105 206.487 162.103C206.493 162.1 206.502 162.094 206.516 162.086C206.545 162.069 206.589 162.045 206.644 162.016C206.757 161.958 206.906 161.887 207.061 161.83C207.187 161.784 207.292 161.759 207.371 161.747C207.377 161.77 207.385 161.804 207.387 161.857C207.397 162.062 207.346 162.321 207.253 162.757V162.759C206.881 164.516 206.028 167.716 205.466 169.219L204.958 170.468L204.951 170.485L204.945 170.503C204.223 172.485 203.617 173.991 202.537 174.891L202.503 174.921C198.981 178.133 193.312 180.732 184.073 184.754L184.068 184.756C170.078 190.922 147.234 194.87 125.993 194.739C118.398 194.569 111.058 193.719 104.56 192.957L104.556 192.956L100.91 192.548C92.5294 191.629 85.0848 191.031 79.2534 192.455C75.8764 193.279 72.9807 194.792 70.7378 197.342C68.6413 199.725 67.1777 202.944 66.3696 207.181L66.2163 208.043C64.27 219.757 68.7712 232.61 73.6733 242.454C77.3614 249.86 81.3363 255.68 83.1626 258.208C82.2338 257.778 80.9125 257.167 79.3267 256.432C76.1311 254.953 71.8611 252.976 67.5649 250.984C63.2687 248.992 58.9464 246.985 55.645 245.446C53.9942 244.677 52.5994 244.025 51.5913 243.551C51.087 243.313 50.6809 243.121 50.3882 242.981C50.2419 242.911 50.1256 242.856 50.0405 242.814L49.9136 242.751C49.5458 242.543 49.4126 242.4 49.0269 242.077L49.0103 242.063L48.9937 242.051C48.8795 241.963 48.6913 241.792 48.5083 241.618C48.4223 241.536 48.3459 241.461 48.2905 241.406C48.2629 241.379 48.2401 241.356 48.2251 241.342L48.1899 241.306C45.6521 238.849 40.5678 233.362 30.0972 221.18H30.0962C19.8742 209.29 9.3137 202.513 -1.05225 199.295C-11.4164 196.077 -21.5165 196.436 -30.7837 198.707C-35.4512 199.822 -41.2268 203.196 -45.0308 207.017C-50.0417 211.965 -52.1973 219.352 -53.0659 226.231C-53.938 233.139 -53.5334 239.716 -53.2769 243.202L-53.2759 243.213C-52.9439 247.141 -52.6812 249.277 -52.4731 250.519C-52.3917 251.006 -52.3171 251.361 -52.2515 251.63L-79.1899 238.403L-80.1597 234.297C-80.8813 231.242 -81.7088 227.838 -83.3433 223.586C-88.3856 210.199 -97.9994 197.752 -109.439 188.115C-120.877 178.479 -134.212 171.591 -146.751 169.403H-146.752C-163.503 166.491 -194.516 166.097 -210.929 197.232C-217.821 210.288 -217.389 227.235 -209.888 241.482C-206.235 248.576 -200.886 254.645 -194.32 259.146C-187.753 263.648 -180.175 266.438 -172.268 267.265V267.266C-156.323 268.998 -144.045 265.311 -137.119 256.279C-130.171 247.266 -128.892 234.948 -133.794 224.932L-133.795 224.93L-134.296 223.944C-139.552 213.899 -147.408 208.468 -158.137 207.513H-158.14C-166.582 206.785 -173.006 210.292 -175.465 214.158L-175.477 214.177L-175.489 214.196C-176.132 215.313 -177.382 217.522 -177.382 220.671V220.766C-177.382 225.022 -175.431 227.781 -173.277 229.461C-171.175 231.099 -168.856 231.732 -167.929 231.794L-167.875 231.798L-167.821 231.796C-167.348 231.776 -165.147 231.715 -162.208 230.986L-162.163 230.975L-162.119 230.96L-160.783 230.493L-159.886 230.222L-159.269 230.085C-157.042 229.659 -154.737 230.085 -152.806 231.281C-150.877 232.475 -149.46 234.352 -148.834 236.543V236.544C-148.322 238.402 -148.403 240.376 -149.068 242.185C-149.733 243.994 -150.948 245.546 -152.539 246.621L-152.537 246.625L-152.707 246.739L-153.158 247.011L-153.166 247.016C-154.429 247.795 -155.792 248.399 -157.216 248.81L-157.234 248.815L-157.251 248.821C-161.221 250.126 -164.693 250.73 -168.146 250.73C-179.833 250.693 -196.077 240.727 -196.792 221.978L-196.814 221.078C-196.904 210.19 -191.486 200.241 -181.849 193.812C-170.754 186.432 -151.503 183.893 -133.532 194.934C-111.487 208.496 -105.719 235.128 -111.469 253.236C-115.668 266.415 -123.65 276.488 -134.455 282.927C-145.267 289.371 -158.969 292.211 -174.646 290.799C-196.817 288.807 -217.387 277.058 -229.631 259.365C-235.057 251.522 -239.076 242.763 -241.241 234.056V234.054L-241.468 233.12C-246.088 213.493 -241.122 192.765 -237.421 183.511L-237.42 183.512C-225.379 153.544 -202.313 127.679 -168.809 106.697L-168.804 106.694L-166.703 105.362L-166.704 105.361ZM84.1724 259.562L84.1704 259.56C84.1697 259.559 84.1692 259.558 84.1685 259.557C84.1668 259.555 84.1651 259.553 84.1636 259.552C84.1604 259.548 84.1576 259.543 84.1548 259.54C84.1492 259.533 84.1437 259.526 84.1392 259.519C84.1374 259.517 84.136 259.514 84.1343 259.511C84.1516 259.534 84.1634 259.551 84.1724 259.562ZM162.486 95.8318C159.059 95.7913 155.652 96.3883 152.438 97.5955C149.01 98.883 145.87 100.839 143.197 103.35C137.757 108.444 134.635 115.374 134.361 122.847V122.852C134.127 130.265 136.819 137.471 141.85 142.898C146.881 148.326 153.844 151.534 161.221 151.822H161.226C168.702 152.078 175.795 149.433 181.236 144.302C186.657 139.227 189.778 132.297 190.072 124.826V124.819C190.31 117.398 187.615 110.183 182.575 104.754C177.691 99.4935 170.991 96.3236 163.863 95.8826L163.171 95.8484L162.486 95.8318ZM156.053 106.876C158.23 106.06 160.546 105.688 162.867 105.783H162.871C167.571 105.957 172.03 107.997 175.238 111.455C178.446 114.913 180.161 119.508 180.007 124.236C179.834 128.963 177.804 133.428 174.363 136.65C170.924 139.871 166.357 141.589 161.662 141.43H161.663C158.167 141.282 154.792 140.101 151.959 138.035C149.127 135.968 146.963 133.108 145.738 129.81C144.513 126.513 144.282 122.925 145.075 119.496C145.867 116.068 147.646 112.952 150.19 110.536C151.883 108.936 153.877 107.692 156.053 106.876ZM165.974 113.243C163.514 113.243 161.241 113.906 159.553 115.038C157.87 116.166 156.682 117.835 156.682 119.819C156.682 121.787 157.874 123.451 159.553 124.578C161.239 125.709 163.512 126.377 165.974 126.377C168.446 126.377 170.729 125.703 172.421 124.571C174.105 123.444 175.305 121.781 175.305 119.819C175.305 117.833 174.11 116.163 172.42 115.036C170.726 113.905 168.443 113.243 165.974 113.243ZM92.7007 71.0945H92.6997C92.6987 71.0942 92.6969 71.0938 92.6958 71.0935L92.6948 71.0925L92.7007 71.0945Z" stroke="url(#paint0_linear_1456_957)" stroke-width="2"/>
</g>
</g>
<defs>
<filter id="filter0_din_1456_957" x="-3" y="-3.9873" width="282" height="282" filterUnits="userSpaceOnUse" color-interpolation-filters="sRGB">
<feFlood flood-opacity="0" result="BackgroundImageFix"/>
<feColorMatrix in="SourceAlpha" type="matrix" values="0 0 0 0 0 0 0 0 0 0 0 0 0 0 0 0 0 0 127 0" result="hardAlpha"/>
<feOffset/>
<feGaussianBlur stdDeviation="15"/>
<feComposite in2="hardAlpha" operator="out"/>
<feColorMatrix type="matrix" values="0 0 0 0 0.592157 0 0 0 0 0.8 0 0 0 0 0.364706 0 0 0 0.2 0"/>
<feBlend mode="normal" in2="BackgroundImageFix" result="effect1_dropShadow_1456_957"/>
<feBlend mode="normal" in="SourceGraphic" in2="BackgroundImageFix" result="shape"/>
<feColorMatrix in="SourceAlpha" type="matrix" values="0 0 0 0 0 0 0 0 0 0 0 0 0 0 0 0 0 0 127 0" result="hardAlpha"/>
<feOffset dy="4"/>
<feGaussianBlur stdDeviation="17"/>
<feComposite in2="hardAlpha" operator="arithmetic" k2="-1" k3="1"/>
<feColorMatrix type="matrix" values="0 0 0 0 1 0 0 0 0 1 0 0 0 0 1 0 0 0 0.85 0"/>
<feBlend mode="normal" in2="shape" result="effect2_innerShadow_1456_957"/>
<feTurbulence type="fractalNoise" baseFrequency="2 2" stitchTiles="stitch" numOctaves="3" result="noise" seed="8007" />
<feColorMatrix in="noise" type="luminanceToAlpha" result="alphaNoise" />
<feComponentTransfer in="alphaNoise" result="coloredNoise1">
<feFuncA type="discrete" tableValues="0 0 0 0 0 0 0 0 0 0 0 0 0 0 0 0 1 1 1 1 1 1 1 1 1 1 1 1 1 1 1 1 1 1 0 0 0 0 0 0 0 0 0 0 0 0 0 0 0 0 0 0 0 0 0 0 0 0 0 0 0 0 0 0 0 0 0 0 0 0 0 0 0 0 0 0 0 0 0 0 0 0 0 0 0 0 0 0 0 0 0 0 0 0 0 0 0 0 0 0 "/>
</feComponentTransfer>
<feComposite operator="in" in2="effect2_innerShadow_1456_957" in="coloredNoise1" result="noise1Clipped" />
<feFlood flood-color="rgba(255, 255, 255, 0.95)" result="color1Flood" />
<feComposite operator="in" in2="noise1Clipped" in="color1Flood" result="color1" />
<feMerge result="effect3_noise_1456_957">
<feMergeNode in="effect2_innerShadow_1456_957" />
<feMergeNode in="color1" />
</feMerge>
<feBlend mode="normal" in="effect3_noise_1456_957" in2="effect1_dropShadow_1456_957" result="effect3_noise_1456_957"/>
</filter>
<filter id="filter1_i_1456_957" x="-244.333" y="65.6091" width="454.386" height="226.544" filterUnits="userSpaceOnUse" color-interpolation-filters="sRGB">
<feFlood flood-opacity="0" result="BackgroundImageFix"/>
<feBlend mode="normal" in="SourceGraphic" in2="BackgroundImageFix" result="shape"/>
<feColorMatrix in="SourceAlpha" type="matrix" values="0 0 0 0 0 0 0 0 0 0 0 0 0 0 0 0 0 0 127 0" result="hardAlpha"/>
<feOffset/>
<feGaussianBlur stdDeviation="7"/>
<feComposite in2="hardAlpha" operator="arithmetic" k2="-1" k3="1"/>
<feColorMatrix type="matrix" values="0 0 0 0 1 0 0 0 0 1 0 0 0 0 1 0 0 0 1 0"/>
<feBlend mode="normal" in2="shape" result="effect1_innerShadow_1456_957"/>
</filter>
<linearGradient id="paint0_linear_1456_957" x1="210.052" y1="133.253" x2="-31.0967" y2="167.846" gradientUnits="userSpaceOnUse">
<stop stop-color="white"/>
<stop offset="1" stop-color="white" stop-opacity="0"/>
</linearGradient>
<clipPath id="clip0_1456_957">
<rect width="275" height="275" fill="white"/>
</clipPath>
</defs>
</svg>
