<svg width="147" height="135" viewBox="0 0 147 135" fill="none" xmlns="http://www.w3.org/2000/svg">
<path d="M131.805 111.368C131.312 112.805 130.94 114.288 130.067 115.579C127.594 119.255 124.019 120.914 119.77 121.113C116.423 121.273 113.069 121.128 109.715 121.166C108.888 121.174 108.622 120.891 108.63 120.058C108.645 116.657 108.933 113.256 108.539 109.862C108.455 109.175 108.896 109.068 109.427 109.068C111.164 109.068 112.902 109.068 114.64 109.068C117.387 109.052 118.685 106.859 117.319 104.444C114.23 98.9944 111.104 93.5833 107.993 88.1493C103.371 80.0709 98.7422 72.0002 94.1208 63.9142C91.7608 59.7794 89.4311 55.6218 87.0635 51.4794C83.4742 45.1894 79.8772 38.9071 76.2651 32.6324C75.142 30.6758 72.5847 30.607 71.4541 32.5406C69.3976 36.0487 67.4322 39.6102 65.3984 43.1259C65.0721 43.6914 65.1556 44.0506 65.6413 44.4175C68.1075 46.2594 70.3841 48.3229 72.6227 50.4323C74.2466 51.9533 75.7643 53.5659 77.2592 55.2091C79.7634 57.9528 82.1007 60.8418 84.2027 63.9065C87.5264 68.7673 90.4631 73.8421 92.808 79.2608C94.136 82.3332 95.335 85.4438 96.329 88.6308C97.1865 91.3899 97.8467 94.2101 98.469 97.0379C100.116 104.482 100.495 112.025 100.321 119.615C100.29 121.021 100.161 121.151 98.7953 121.151C88.8392 121.151 78.8756 121.151 68.9195 121.174C67.9785 121.174 67.7509 120.883 67.8116 119.966C68.1455 115.029 67.9861 110.107 67.0679 105.239C64.7686 93.0407 59.1607 82.6389 50.2443 74.0561C48.6279 72.497 48.6052 72.5046 47.4669 74.4765C46.5335 76.0967 45.6381 77.7476 44.6895 79.3678C44.3404 79.964 44.4012 80.392 44.902 80.8734C48.4989 84.3738 51.4357 88.3939 53.8033 92.8191C56.3378 97.5652 57.9314 102.64 58.8193 107.967C59.487 111.987 59.4719 116.007 59.1911 120.05C59.138 120.845 58.9027 121.166 58.068 121.166C48.074 121.143 38.0876 121.212 28.0935 121.105C23.6846 121.059 19.9663 119.332 17.5152 115.434C15.5119 112.255 15.4588 108.854 16.4528 105.323C17.151 102.823 18.6156 100.729 19.8525 98.5206C21.0135 96.4417 22.2504 94.4088 23.4342 92.3376C24.1172 91.1453 24.2234 91.1147 25.3996 91.795C28.215 93.4229 30.6888 95.494 33.0336 97.7334C33.6104 98.2836 33.6938 98.7499 33.2461 99.4683C32.2369 101.081 31.3187 102.755 30.3853 104.421C28.9511 106.973 30.15 109.029 33.0564 109.029C37.2908 109.029 41.5327 109.014 45.7671 109.045C46.5866 109.045 46.8219 108.838 46.6322 107.998C45.2056 101.692 42.4889 96.0673 38.1483 91.2676C35.5985 88.4474 32.7301 86.017 29.4215 84.1522C28.6247 83.7013 28.564 83.2886 29.0193 82.5014C33.3827 74.8968 37.7081 67.2693 42.0487 59.6571C42.7545 58.419 43.5133 57.2038 44.1963 55.9504C44.5681 55.2702 44.9172 55.1709 45.6077 55.5683C49.1288 57.6013 52.4374 59.9323 55.5486 62.5537C60.0562 66.3522 64.0401 70.6551 67.3866 75.5006C70.8621 80.5295 73.7685 85.8795 75.8402 91.6803C77.7449 97.0073 79.0198 102.472 79.6344 108.089C79.7103 108.754 79.8848 109.06 80.5906 109.052C82.8064 109.022 85.0146 109.022 87.2305 109.052C87.8679 109.06 88.0424 108.831 87.9969 108.212C87.6858 103.748 86.7828 99.3918 85.6597 95.0813C84.4076 90.2587 82.6243 85.6425 80.4616 81.1639C78.2988 76.6852 75.6353 72.5123 72.6682 68.5304C70.0578 65.0377 67.1438 61.8124 63.9794 58.8317C60.4887 55.5377 56.7324 52.5876 52.6726 50.0349C51.7089 49.4311 50.7755 48.7509 49.7738 48.2312C48.9922 47.8262 48.9922 47.4287 49.3944 46.7409C51.0031 44.0048 52.5739 41.2381 54.1599 38.4867C57.1801 33.2285 60.1169 27.9091 63.2585 22.7197C65.7399 18.6155 69.3141 16.0934 74.3149 16.1928C77.8435 16.2616 80.545 18.027 82.8519 20.5568C84.5821 22.4522 85.6748 24.7756 86.9573 26.9614C89.0441 30.523 91.0778 34.115 93.1191 37.7071C95.2211 41.4062 97.3004 45.1206 99.41 48.8197C103.409 55.8281 107.423 62.8289 111.43 69.8296C116.021 77.8545 120.65 85.8565 125.188 93.912C127.024 97.1754 129.02 100.355 130.659 103.733C131.251 104.956 131.403 106.286 131.82 107.554V111.376L131.805 111.368Z" fill="url(#paint0_linear_1083_7713)"/>
<g filter="url(#filter0_dii_1083_7713)">
<path d="M138.805 113.368C138.307 114.805 137.932 116.288 137.052 117.579C134.557 121.255 130.952 122.914 126.666 123.113C123.291 123.273 119.908 123.128 116.525 123.166C115.69 123.174 115.422 122.891 115.43 122.058C115.445 118.657 115.736 115.256 115.338 111.862C115.254 111.175 115.698 111.068 116.234 111.068C117.986 111.068 119.739 111.068 121.492 111.068C124.263 111.052 125.571 108.859 124.194 106.444C121.079 100.994 117.925 95.5833 114.787 90.1493C110.126 82.0709 105.457 74.0002 100.796 65.9142C98.4154 61.7794 96.0657 57.6218 93.6777 53.4794C90.0574 47.1894 86.4295 40.9071 82.7862 34.6324C81.6534 32.6758 79.0741 32.607 77.9337 34.5406C75.8595 38.0487 73.8771 41.6102 71.8258 45.1259C71.4967 45.6914 71.5809 46.0506 72.0708 46.4175C74.5583 48.2594 76.8545 50.3229 79.1124 52.4323C80.7503 53.9533 82.2811 55.5659 83.7889 57.2091C86.3147 59.9528 88.672 62.8418 90.7922 65.9065C94.1446 70.7673 97.1066 75.8421 99.4717 81.2608C100.811 84.3332 102.02 87.4438 103.023 90.6308C103.888 93.3899 104.554 96.2101 105.181 99.0379C106.842 106.482 107.225 114.025 107.049 121.615C107.018 123.021 106.888 123.151 105.511 123.151C95.4687 123.151 85.4192 123.151 75.3773 123.174C74.4282 123.174 74.1985 122.883 74.2598 121.966C74.5965 117.029 74.4358 112.107 73.5097 107.239C71.1906 95.0407 65.5344 84.6389 56.541 76.0561C54.9108 74.497 54.8878 74.5046 53.7397 76.4765C52.7983 78.0967 51.8951 79.7476 50.9384 81.3678C50.5863 81.964 50.6475 82.392 51.1527 82.8734C54.7806 86.3738 57.7427 90.3939 60.1307 94.8191C62.6871 99.5652 64.2944 104.64 65.1899 109.967C65.8635 113.987 65.8482 118.007 65.565 122.05C65.5114 122.845 65.2741 123.166 64.4322 123.166C54.352 123.143 44.2795 123.212 34.1993 123.105C29.7524 123.059 26.002 121.332 23.5298 117.434C21.5092 114.255 21.4556 110.854 22.4583 107.323C23.1625 104.823 24.6397 102.729 25.8872 100.521C27.0583 98.4417 28.3059 96.4088 29.4999 94.3376C30.1887 93.1453 30.2959 93.1147 31.4822 93.795C34.3218 95.4229 36.817 97.494 39.182 99.7334C39.7637 100.284 39.8479 100.75 39.3963 101.468C38.3784 103.081 37.4523 104.755 36.5108 106.421C35.0643 108.973 36.2736 111.029 39.205 111.029C43.4759 111.029 47.7544 111.014 52.0253 111.045C52.8519 111.045 53.0892 110.838 52.8978 109.998C51.4589 103.692 48.7188 98.0673 44.3407 93.2676C41.769 90.4474 38.8759 88.017 35.5388 86.1522C34.7351 85.7013 34.6739 85.2886 35.1331 84.5014C39.5341 76.8968 43.8968 69.2693 48.2749 61.6571C48.9867 60.419 49.752 59.2038 50.4409 57.9504C50.8159 57.2702 51.168 57.1709 51.8645 57.5683C55.4159 59.6013 58.753 61.9323 61.8911 64.5537C66.4375 68.3522 70.4558 72.6551 73.8312 77.5006C77.3366 82.5295 80.2681 87.8795 82.3576 93.6803C84.2787 99.0073 85.5646 104.472 86.1845 110.089C86.2611 110.754 86.4371 111.06 87.1489 111.052C89.3839 111.022 91.6111 111.022 93.8461 111.052C94.489 111.06 94.665 110.831 94.6191 110.212C94.3053 105.748 93.3945 101.392 92.2617 97.0813C90.9988 92.2587 89.2002 87.6425 87.0188 83.1639C84.8375 78.6852 82.1509 74.5123 79.1583 70.5304C76.5253 67.0377 73.5862 63.8124 70.3946 60.8317C66.8738 57.5377 63.0851 54.5876 58.9903 52.0349C58.0182 51.4311 57.0768 50.7509 56.0665 50.2312C55.2782 49.8262 55.2782 49.4287 55.6838 48.7409C57.3064 46.0048 58.8908 43.2381 60.4904 40.4867C63.5367 35.2285 66.4987 29.9091 69.6674 24.7197C72.1703 20.6155 75.7752 18.0934 80.8192 18.1928C84.3782 18.2616 87.103 20.027 89.4298 22.5568C91.1749 24.4522 92.277 26.7756 93.5705 28.9614C95.6753 32.523 97.7266 36.115 99.7855 39.7071C101.906 43.4062 104.003 47.1206 106.131 50.8197C110.164 57.8281 114.213 64.8289 118.254 71.8296C122.885 79.8545 127.554 87.8565 132.131 95.912C133.983 99.1754 135.996 102.355 137.649 105.733C138.246 106.956 138.399 108.286 138.82 109.554V113.376L138.805 113.368Z" fill="url(#paint1_linear_1083_7713)"/>
</g>
<defs>
<filter id="filter0_dii_1083_7713" x="0.000312328" y="-10.9001" width="146.1" height="145" filterUnits="userSpaceOnUse" color-interpolation-filters="sRGB">
<feFlood flood-opacity="0" result="BackgroundImageFix"/>
<feColorMatrix in="SourceAlpha" type="matrix" values="0 0 0 0 0 0 0 0 0 0 0 0 0 0 0 0 0 0 127 0" result="hardAlpha"/>
<feOffset dx="-7.27" dy="-3.64"/>
<feGaussianBlur stdDeviation="7.275"/>
<feComposite in2="hardAlpha" operator="out"/>
<feColorMatrix type="matrix" values="0 0 0 0 0.501961 0 0 0 0 0.192157 0 0 0 0 0.666667 0 0 0 0.31 0"/>
<feBlend mode="normal" in2="BackgroundImageFix" result="effect1_dropShadow_1083_7713"/>
<feBlend mode="normal" in="SourceGraphic" in2="effect1_dropShadow_1083_7713" result="shape"/>
<feColorMatrix in="SourceAlpha" type="matrix" values="0 0 0 0 0 0 0 0 0 0 0 0 0 0 0 0 0 0 127 0" result="hardAlpha"/>
<feOffset dy="3.64"/>
<feGaussianBlur stdDeviation="2.725"/>
<feComposite in2="hardAlpha" operator="arithmetic" k2="-1" k3="1"/>
<feColorMatrix type="matrix" values="0 0 0 0 1 0 0 0 0 1 0 0 0 0 1 0 0 0 0.41 0"/>
<feBlend mode="normal" in2="shape" result="effect2_innerShadow_1083_7713"/>
<feColorMatrix in="SourceAlpha" type="matrix" values="0 0 0 0 0 0 0 0 0 0 0 0 0 0 0 0 0 0 127 0" result="hardAlpha"/>
<feOffset dy="-29.09"/>
<feGaussianBlur stdDeviation="14.545"/>
<feComposite in2="hardAlpha" operator="arithmetic" k2="-1" k3="1"/>
<feColorMatrix type="matrix" values="0 0 0 0 1 0 0 0 0 1 0 0 0 0 1 0 0 0 0.4 0"/>
<feBlend mode="normal" in2="effect2_innerShadow_1083_7713" result="effect3_innerShadow_1083_7713"/>
</filter>
<linearGradient id="paint0_linear_1083_7713" x1="73.8203" y1="16.1899" x2="73.8203" y2="121.19" gradientUnits="userSpaceOnUse">
<stop stop-color="#A337B4"/>
<stop offset="0.480769" stop-color="#702FA4"/>
<stop offset="1" stop-color="#4E2A9A"/>
</linearGradient>
<linearGradient id="paint1_linear_1083_7713" x1="80.3203" y1="18.1899" x2="80.3203" y2="123.19" gradientUnits="userSpaceOnUse">
<stop stop-color="#A337B4"/>
<stop offset="0.480769" stop-color="#702FA4"/>
<stop offset="1" stop-color="#4E2A9A"/>
</linearGradient>
</defs>
</svg>
