<svg width="113" height="104" viewBox="0 0 113 104" fill="none" xmlns="http://www.w3.org/2000/svg">
<path d="M112.18 52.0269C111.819 80.8002 89.4556 103.969 60.2104 104C30.7581 104.031 8.14138 80.685 8.17974 51.9731C8.22577 22.9081 31.1263 -0.0459926 60.172 6.92019e-05C89.8162 0.046131 111.888 23.576 112.18 52.0269ZM85.3511 50.2765C86.7551 50.2765 88.159 50.2612 89.5707 50.2765C90.2305 50.2842 90.4606 50.0693 90.3992 49.3707C89.7164 42.208 86.8702 36.0434 81.9218 30.8385C81.5382 30.4316 81.193 30.3625 80.6636 30.5083C75.1475 32.0591 69.9077 29.0267 68.4884 23.4532C68.3503 22.9005 68.0971 22.6702 67.5677 22.5397C60.5787 20.8277 53.8351 21.5109 47.2986 24.4896C46.7463 24.7429 46.5852 24.9733 46.9304 25.5567C48.3804 27.998 49.7997 30.4623 51.196 32.9419C51.5105 33.5024 51.7867 33.5945 52.3851 33.3411C56.2057 31.729 60.1797 31.3682 64.2074 32.205C72.7693 33.9783 78.7994 40.4577 80.1803 49.3169C80.3107 50.1384 80.6176 50.3073 81.3387 50.2919C82.6813 50.2535 84.0239 50.2842 85.3665 50.2765H85.3511ZM59.7041 82.3893C62.581 82.3816 65.013 82.0669 67.422 81.4988C68.0664 81.3452 68.3426 81.0612 68.5114 80.401C69.877 75.0194 75.2012 71.9409 80.5332 73.4533C81.1853 73.6376 81.5766 73.5301 82.0292 73.0464C86.8779 67.8798 89.6934 61.7997 90.3839 54.7369C90.4606 53.9538 90.2458 53.7081 89.4863 53.7158C87.1847 53.7465 84.8832 53.7235 82.5816 53.7235C81.1342 53.7235 80.2775 54.4247 80.0115 55.827C79.9962 55.9191 79.9655 56.0112 79.9425 56.1034C77.2036 68.6015 64.4223 75.4263 52.5309 70.7126C51.7253 70.3902 51.4415 70.5898 51.0732 71.25C49.7536 73.6222 48.4034 75.979 46.9994 78.3052C46.5775 79.0038 46.7309 79.2571 47.4137 79.5642C51.4568 81.4143 55.6917 82.3356 59.7194 82.3816L59.7041 82.3893ZM48.4341 35.2757C48.342 35.1069 48.2576 34.938 48.1656 34.7767C46.7309 32.2817 45.2809 29.8021 43.8693 27.2994C43.5317 26.6929 43.2632 26.7543 42.7722 27.1074C36.98 31.2453 33.052 36.719 30.9806 43.5362C30.7888 44.158 30.8731 44.5495 31.3641 45.0255C35.3689 48.9177 35.3689 55.09 31.3641 58.9822C30.8731 59.4659 30.7964 59.8574 30.9806 60.4792C33.0443 67.258 36.9493 72.7086 42.6955 76.8542C43.3706 77.3455 43.6085 77.1766 43.969 76.5318C45.2809 74.1903 46.6005 71.8565 48.0045 69.5688C48.4801 68.7857 48.342 68.4403 47.6746 67.8875C41.2839 62.6058 38.8903 55.827 40.4323 47.7201C41.3453 42.922 43.923 39.0605 47.7359 36.0204C47.9968 35.8131 48.3727 35.698 48.4341 35.2757ZM70.8129 21.2653C70.8129 25.1882 74.0658 28.4356 77.9554 28.3818C81.776 28.3281 84.9445 25.1191 84.9522 21.296C84.9522 17.4268 81.73 14.1794 77.8941 14.1794C74.0198 14.1794 70.8283 17.3807 70.8206 21.2653H70.8129ZM70.8129 82.7348C70.8129 86.6116 74.0275 89.8283 77.8941 89.8129C81.7454 89.8053 84.9599 86.5656 84.9522 82.6964C84.9522 78.8733 81.7684 75.6566 77.9554 75.6105C74.0658 75.5645 70.8129 78.8042 70.8206 82.7348H70.8129ZM17.6392 51.6814C17.3553 55.4278 20.3934 58.8594 24.3827 59.0743C28.0959 59.2739 31.4485 56.4949 31.7708 52.4107C32.0776 48.5953 29.0319 45.1483 25.0118 44.9257C20.9534 44.7031 17.7619 47.9735 17.6392 51.6814Z" fill="url(#paint0_linear_1083_7710)"/>
<g filter="url(#filter0_dii_1083_7710)">
<path d="M48.3522 67.8994C41.9345 62.5989 39.5308 55.7959 41.0793 47.6602C41.9961 42.845 44.5848 38.9697 48.4139 35.9188C48.6758 35.7108 49.0533 35.5952 49.115 35.1715C49.0225 35.002 48.9377 34.8325 48.8453 34.6707C47.4046 32.1668 45.9485 29.6783 44.5309 27.1666C44.1919 26.558 43.9222 26.6196 43.4292 26.974C37.6124 31.1267 33.6678 36.6199 31.5876 43.4613C31.395 44.0854 31.4797 44.4783 31.9728 44.9559C35.9945 48.862 35.9945 55.0563 31.9728 58.9624C31.4797 59.4478 31.4027 59.8407 31.5876 60.4648C33.6601 67.2677 37.5816 72.7378 43.3521 76.8981C44.0301 77.3912 44.2689 77.2217 44.631 76.5745C45.9485 74.2247 47.2736 71.8826 48.6835 69.5867C49.1612 68.8008 49.0225 68.4542 48.3522 67.8994Z" fill="url(#paint1_linear_1083_7710)"/>
<path d="M78.7607 28.253C82.5975 28.1991 85.7794 24.9787 85.7871 21.1419C85.7871 17.2589 82.5512 14 78.6991 14C74.8084 14 71.6034 17.2127 71.5957 21.1111C71.5957 25.048 74.8623 28.3069 78.7684 28.253H78.7607Z" fill="url(#paint2_linear_1083_7710)"/>
<path d="M78.7607 75.6577C74.8546 75.6115 71.588 78.8627 71.5957 82.8073C71.5957 86.698 74.8238 89.9261 78.7068 89.9107C82.5744 89.903 85.8025 86.6518 85.7948 82.7688C85.7948 78.9321 82.5975 75.7039 78.7684 75.6577H78.7607Z" fill="url(#paint3_linear_1083_7710)"/>
<path d="M25.602 44.8633C21.5264 44.6399 18.3214 47.9219 18.1981 51.6431C17.9131 55.4028 20.964 58.8467 24.9702 59.0624C28.6991 59.2627 32.0659 56.4737 32.3895 52.375C32.6977 48.546 29.6391 45.0867 25.602 44.8633Z" fill="url(#paint4_linear_1083_7710)"/>
<path d="M90.3414 53.6773C88.0301 53.7081 85.7188 53.685 83.4075 53.685C81.954 53.685 81.0937 54.3887 80.8266 55.796C80.8112 55.8885 80.7803 55.9809 80.7572 56.0734C78.0068 68.616 65.1714 75.4652 53.2297 70.7347C52.4207 70.4111 52.1356 70.6114 51.7658 71.274C50.4407 73.6546 49.0847 76.0199 47.6748 78.3543C47.2511 79.0554 47.4052 79.3096 48.0909 79.6178C52.1511 81.4745 56.4038 82.3991 60.4486 82.4453C63.3377 82.4376 65.78 82.1217 68.1992 81.5516C68.8463 81.3975 69.1237 81.1124 69.2932 80.4499C70.6646 75.0491 76.0114 71.9597 81.3659 73.4774C82.0208 73.6623 82.4137 73.5545 82.8682 73.0691C87.7373 67.8841 90.5648 61.7823 91.2582 54.6943C91.3353 53.9084 91.1196 53.6619 90.3568 53.6696L90.3414 53.6773Z" fill="url(#paint5_linear_1083_7710)"/>
<path d="M82.7357 30.7183C82.3505 30.31 82.0037 30.2407 81.4721 30.3871C75.9327 31.9433 70.6707 28.9001 69.2454 23.3068C69.1067 22.7521 68.8525 22.5209 68.3209 22.39C61.3022 20.6719 54.5301 21.3576 47.966 24.3469C47.4113 24.6011 47.2495 24.8322 47.5962 25.4178C49.0523 27.8677 50.4776 30.3408 51.8798 32.8293C52.1957 33.3917 52.4731 33.4842 53.074 33.23C56.9108 31.612 60.9016 31.2499 64.9464 32.0897C73.5444 33.8694 79.6 40.3719 80.9868 49.2627C81.1177 50.087 81.4259 50.2565 82.1501 50.2411C83.4984 50.2026 84.8466 50.2334 86.1949 50.2257C87.6048 50.2257 89.0147 50.2103 90.4323 50.2257C91.0949 50.2334 91.326 50.0177 91.2644 49.3166C90.5787 42.1285 87.7204 35.9419 82.7511 30.7183H82.7357Z" fill="url(#paint6_linear_1083_7710)"/>
</g>
<defs>
<filter id="filter0_dii_1083_7710" x="-0.000312328" y="-15.09" width="94.9137" height="115.911" filterUnits="userSpaceOnUse" color-interpolation-filters="sRGB">
<feFlood flood-opacity="0" result="BackgroundImageFix"/>
<feColorMatrix in="SourceAlpha" type="matrix" values="0 0 0 0 0 0 0 0 0 0 0 0 0 0 0 0 0 0 127 0" result="hardAlpha"/>
<feOffset dx="-7.27"/>
<feGaussianBlur stdDeviation="5.455"/>
<feComposite in2="hardAlpha" operator="out"/>
<feColorMatrix type="matrix" values="0 0 0 0 0.558143 0 0 0 0 0.219464 0 0 0 0 0 0 0 0 0.46 0"/>
<feBlend mode="normal" in2="BackgroundImageFix" result="effect1_dropShadow_1083_7710"/>
<feBlend mode="normal" in="SourceGraphic" in2="effect1_dropShadow_1083_7710" result="shape"/>
<feColorMatrix in="SourceAlpha" type="matrix" values="0 0 0 0 0 0 0 0 0 0 0 0 0 0 0 0 0 0 127 0" result="hardAlpha"/>
<feOffset dy="-29.09"/>
<feGaussianBlur stdDeviation="14.545"/>
<feComposite in2="hardAlpha" operator="arithmetic" k2="-1" k3="1"/>
<feColorMatrix type="matrix" values="0 0 0 0 1 0 0 0 0 1 0 0 0 0 1 0 0 0 0.4 0"/>
<feBlend mode="normal" in2="shape" result="effect2_innerShadow_1083_7710"/>
<feColorMatrix in="SourceAlpha" type="matrix" values="0 0 0 0 0 0 0 0 0 0 0 0 0 0 0 0 0 0 127 0" result="hardAlpha"/>
<feOffset dy="3.64"/>
<feGaussianBlur stdDeviation="2.725"/>
<feComposite in2="hardAlpha" operator="arithmetic" k2="-1" k3="1"/>
<feColorMatrix type="matrix" values="0 0 0 0 1 0 0 0 0 1 0 0 0 0 1 0 0 0 0.41 0"/>
<feBlend mode="normal" in2="effect2_innerShadow_1083_7710" result="effect3_innerShadow_1083_7710"/>
</filter>
<linearGradient id="paint0_linear_1083_7710" x1="60.1797" y1="0" x2="60.1797" y2="104" gradientUnits="userSpaceOnUse">
<stop stop-color="#F47421"/>
<stop offset="1" stop-color="#FDAD7A"/>
</linearGradient>
<linearGradient id="paint1_linear_1083_7710" x1="40.3036" y1="26.7075" x2="40.3036" y2="77.1837" gradientUnits="userSpaceOnUse">
<stop stop-color="#FFA266"/>
<stop offset="1" stop-color="#FEBB90"/>
</linearGradient>
<linearGradient id="paint2_linear_1083_7710" x1="78.6914" y1="14" x2="78.6914" y2="28.2537" gradientUnits="userSpaceOnUse">
<stop stop-color="#FFA266"/>
<stop offset="1" stop-color="#FEBB90"/>
</linearGradient>
<linearGradient id="paint3_linear_1083_7710" x1="78.6953" y1="75.6572" x2="78.6953" y2="89.9108" gradientUnits="userSpaceOnUse">
<stop stop-color="#FFA266"/>
<stop offset="1" stop-color="#FEBB90"/>
</linearGradient>
<linearGradient id="paint4_linear_1083_7710" x1="25.2953" y1="44.8525" x2="25.2953" y2="59.0725" gradientUnits="userSpaceOnUse">
<stop stop-color="#FFA266"/>
<stop offset="1" stop-color="#FEBB90"/>
</linearGradient>
<linearGradient id="paint5_linear_1083_7710" x1="69.3562" y1="53.6694" x2="69.3562" y2="82.4453" gradientUnits="userSpaceOnUse">
<stop stop-color="#FFA266"/>
<stop offset="1" stop-color="#FEBB90"/>
</linearGradient>
<linearGradient id="paint6_linear_1083_7710" x1="69.344" y1="21.4644" x2="69.344" y2="50.242" gradientUnits="userSpaceOnUse">
<stop stop-color="#FFA266"/>
<stop offset="1" stop-color="#FEBB90"/>
</linearGradient>
</defs>
</svg>
